<?xml version="1.0" encoding="UTF-8"?>
<svg id="Layer_2" data-name="Layer 2" xmlns="http://www.w3.org/2000/svg" viewBox="0 0 295.22 295.22">
  <defs>
    <style>
      .cls-1 {
        fill: #fff;
      }

      .cls-2 {
        opacity: .7;
      }
    </style>
  </defs>
  <g id="Layer_1-2" data-name="Layer 1">
    <rect class="cls-1" width="295.22" height="295.22"/>
    <g class="cls-2">
      <path d="M103.59,115.75c-.08.06-.14.12-.16.2-.34.96-.71,1.85-1.12,2.68-.42.85-.78,1.62-1.1,2.31-.59,1.29-1.24,2.57-1.95,3.85-.48.86-1.15,1.02-2,.49-1.33-.83-1.59-1.96-.79-3.39.59-1.06,2.07-3.76,4.46-8.11.34-.63.54-1.02.59-1.19.03-.08.02-.16-.02-.24-.51-1.08-.58-2.18-.21-3.31.02-.06.04-.11.07-.16,1.47-2.54,2.28-3.93,2.41-4.18.96-1.83,2.02-2.87,3.97-3.21.07-.01.12-.05.15-.12.45-1.07.87-2.22,1.27-3.44.65-2,1.38-4.51,2.2-7.54.13-.48.6-1.99,1.42-4.53,1.16-3.6,2.56-6.77,4.2-9.53,2.72-4.56,6.96-8,11.87-10,3-1.23,6.09-2.07,9.27-2.54,1.81-.26,3.59-.5,5.26-.56,4.37-.16,8.64-.06,13,.55,2.8.39,5.6,1.07,8.4,2.04,3.85,1.34,7.61,3.49,10.4,6.51,1.84,1.99,3.38,4.32,4.64,7,1.97,4.18,3.18,8.01,4.54,12.66,1.08,3.7,2.01,6.54,2.77,8.53,2.73,7.09,4.64,11.91,6.43,17.79,1.92,6.3,3.24,11.74,5.35,19.93.7,2.72,1.25,5.04,1.65,6.98,1.28,6.17,1.89,12.22,1.51,18.32-.17,2.68-.59,5.72-1.42,8.48-.04.14.03.29.17.34,2.6.89,3.47,2.83,3.58,5.53.1,2.3-.24,4.48-1.01,6.54-.01.03,0,.07.03.08,2.1,1.3,3.53,2.98,4.04,5.49.52,2.58.08,4.96-1.32,7.16-.45.7-1.01,1.24-1.72,1.71-.05.03-.06.09-.03.14,0,0,0,0,0,0,.18.24.37.42.56.55.09.06.16.13.23.21,3.05,4.08,3.5,9.43.6,13.73-.51.75-1.1,1.22-1.87,1.96-.05.05-.09.11-.12.18-.48,1.29-1.13,2.35-1.94,3.17-1.34,1.36-2.87,2.27-4.59,2.74-.8.22-2.41.33-4.83.33-38.01,0-68.44,0-91.29,0-1.4,0-2.48-.1-3.26-.31-3.22-.86-5.39-2.86-6.49-6.02-.03-.07-.07-.14-.13-.18-.94-.7-1.61-1.38-2.01-2.05-1.69-2.79-2.18-5.83-1.46-9.11.42-1.93,1.34-3.6,2.76-5.01.08-.08.08-.2,0-.28,0,0,0,0,0,0-1.29-1.18-2.17-2.6-2.63-4.24-.47-1.68-.53-3.32-.16-4.92.56-2.47,1.95-3.84,4.04-5.21.08-.05.11-.15.07-.23-.17-.37-.4-.87-.49-1.18-.5-1.79-.7-3.61-.6-5.47.11-2.06.75-3.91,2.62-4.91.32-.17.7-.38,1.14-.63.06-.03.09-.11.07-.18-.52-1.78-.9-3.63-1.11-5.56-.53-4.79-.5-9.59.1-14.38.38-3.03.94-6.08,1.68-9.16,1.35-5.6,2.92-11.02,4.7-16.25.4-1.16,1.28-3.73,2.66-7.7.15-.44.32-.9.51-1.37.32-.81.5-1.37.54-1.7,0-.03-.02-.06-.06-.07-.01,0-.03,0-.04,0ZM180.17,90.73c-.54-1.2-.94-2.22-1.21-3.05-.56-1.78-1.14-2.94-2.06-5.2-.37-.89-1.23-2.45-2.6-4.67-1.68-2.72-4.18-4.96-7.52-6.7-1.08-.57-2.41-1.1-3.97-1.61-1.6-.52-3.03-.9-4.29-1.16-6.71-1.37-13.49-1.5-20.34-.41-4.54.72-9.11,2.26-12.81,5.02-3.07,2.29-5.27,5.61-6.84,9.13-.78,1.74-1.34,3.1-1.68,4.06-.95,2.71-1.5,4.25-1.63,4.62-.02.04,0,.08.03.1.04.02.08,0,.1-.03.28-.37.55-.87.98-1.36,2.23-2.57,4.77-4.73,7.63-6.48,1.6-.98,3.15-1.72,4.65-2.22,1.61-.54,3.29-.9,5.04-1.09.25-.03.49-.13.69-.29.5-.42.89-.72,1.15-.91,1.06-.73,2.23-1.1,3.51-1.1,6.16-.01,11.92,0,17.28,0,1.52,0,2.84.51,3.94,1.53.39.36.66.58.82.68.09.05.18.09.28.1,1.55.19,2.49.33,2.82.42,3.86,1.12,7.37,2.93,10.52,5.44,1.96,1.56,3.76,3.31,5.4,5.26.02.03.06.04.09.02s.04-.06.02-.09ZM155.39,88.01c-.09.08-.1.23-.02.32.04.05.11.08.18.08.79-.02,1.47-.35,2.04-1,.4-.47.63-1.18.69-2.15.07-1.25.06-2.73-.84-3.55-.4-.37-.96-.37-1.66-.37-9.05-.03-14.76-.03-17.12,0-.91.01-1.52.93-1.7,1.76-.14.62-.14,1.55,0,2.77.15,1.35,1.2,2.57,2.69,2.51.1,0,.17-.08.17-.18,0-.03,0-.06-.02-.08l-.82-1.42c-.04-.07-.06-.14-.07-.22-.12-1.42.35-2.55,1.78-2.88.66-.15,1.29-.02,1.9.4,1.42.98,1.25,2.62.92,4.15-.02.09.04.17.12.19.01,0,.02,0,.03,0h7.8c.1,0,.18-.08.18-.18,0-.03,0-.07-.03-.1-.12-.2-.01-.41-.09-.63-.4-1.11-.26-2.51.69-3.28,1.83-1.49,4.11.05,3.95,2.24-.05.62-.28,1.2-.77,1.63ZM97.34,164.18c0,.44.02.87.07,1.3.19,1.77.41,3.45.66,5.05.02.13.14.22.27.2.02,0,.03,0,.05-.01,2.43-.89,4.87-1.66,7.31-2.32,4.4-1.19,8.73-2.12,13.01-2.81,4.81-.77,8.6-1.26,11.39-1.47.51-.04.79-.05.85-.05.76,0,1.5-.2,2.13-.19.48,0,1.05-.03,1.72-.12.21-.03.78-.06,1.73-.12,3.13-.17,6.09-.27,8.87-.3.1,0,.19-.08.19-.18.03-.45.04-.86.05-1.21,0-4.92.01-22.62.01-53.1,0-1.47.67-2.22,2.02-2.24,1-.01,1.78.58,1.78,1.58-.05,16.77-.06,35.08-.03,54.91,0,.16.13.29.28.29,1.81.01,3.39.06,4.75.15.72.05,1.6.09,2.66.12.37.01,1.26.06,2.66.15,5.68.35,11.17.96,16.46,1.82,6.25,1.01,12.15,2.42,17.71,4.22,1.04.34,1.97.68,2.79,1.02.17.07.38,0,.45-.18,0-.02.02-.04.02-.06.22-1.12.43-2.5.63-4.13.1-.84.06-1.63.25-2.38.01-.05-.02-.09-.06-.1-.02,0-.04,0-.05,0-1.6.6-3.48-.95-4.31-2.24-1.68-2.59-2.25-5.48-1.73-8.65.22-1.35,1.03-2.85,2.28-3.46,1.01-.48,2.09-.39,3.24.27.08.04.17.02.22-.06.02-.04.03-.08.02-.13-.28-.94-.52-1.91-.71-2.92-.13-.68-.4-1.8-.81-3.36-1.25-4.75-2.28-8.79-3.06-12.14-.88-3.73-2.03-7.92-3.45-12.58-1.1-3.59-2.31-7.1-3.64-10.51-.57-1.45-1.24-3.02-2.03-4.7-1.89-4.05-4.3-7.66-7.23-10.81-3.32-3.57-7.48-6.6-12.03-8.26-.89-.33-1.73-.57-2.54-.72-.08-.02-.16.04-.18.12,0,.01,0,.03,0,.05.09,1.05.05,2.09-.1,3.11-.38,2.53-1.75,4.16-4.12,4.89-.67.21-1.35.32-2.03.34-.14,0-.24.11-.25.25-.05,3.46-.73,7.23-2.71,9.97-1.08,1.49-2.55,2.38-4.42,2.66-3.64.55-6.41-2.3-7.51-5.46-.8-2.3-1.21-4.71-1.23-7.23,0-.16-.13-.29-.29-.29-2.58,0-5.16-1.32-5.81-3.93-.38-1.51-.51-3-.4-4.48,0-.07-.05-.14-.12-.15-.02,0-.04,0-.06,0-.79.27-1.63.38-2.38.64-2.44.83-4.53,1.89-6.29,3.18-5.38,3.95-9.64,9.04-12.77,15.27-.16.32-.24.57-.25.77,0,.09.02.17.06.25.54.96.93,1.96.9,3.09-.03,1.17-.32,2.26-.86,3.28-.85,1.6-1.6,3.21-2.89,4.53-.05.05-.09.1-.12.16-.16.23-.35.65-.57,1.25-1.49,3.98-2.87,7.88-4.15,11.71-2.13,6.36-3.87,12.69-5.23,19-.23,1.08-.43,2.08-.59,2.99-.01.07.03.13.1.14.02,0,.05,0,.07,0,1.5-.7,3.01-.65,4.07.73.56.73.93,1.56,1.11,2.49.65,3.3.06,6.34-1.75,9.12-.64.98-2.02,2.05-3.26,1.91-.33-.04-.57-.06-.7-.06-.07,0-.12.05-.12.12ZM151.35,92.11l-7.65.07c-.1,0-.18.08-.18.18h0v.03c.04,4.93,1.86,8.9,4.07,8.89h.02c2.2-.02,3.96-4.03,3.92-8.95,0,0,0,0,0,0v-.03c0-.1-.08-.18-.18-.18ZM108.02,105.98c-.02-.09-.12-.15-.21-.13-.04,0-.07.03-.1.06-.56.72-1.07,1.55-1.53,2.5-.22.45-.64,1.14-.84,1.4-.15.19-.16.46-.03.66l.45.68c.12.18.36.23.54.11.03-.02.05-.04.07-.06.22-.24.66-1.04,1.31-2.4.45-.92.55-1.86.32-2.82ZM97.75,160.36c.23-.12.43-.31.59-.58,1.19-1.92,1.49-4.02.91-6.28-.03-.1-.13-.16-.23-.14-.03,0-.06.03-.09.05-.4.43-.7.94-.88,1.53-.25.81-.4,1.4-.43,1.76-.1,1-.12,2.18-.07,3.53,0,.08.07.14.15.14.02,0,.04,0,.06-.02ZM197.52,159.97c.28-1.62.21-3.58-.44-5.17-.17-.43-.31-1.1-.68-1.3-.18-.1-.4-.03-.5.14-.02.03-.03.07-.04.1-.52,2.42,0,4.51,1.56,6.26.02.03.06.03.09,0,.01,0,.02-.02.02-.03ZM199.92,182.83c.39-1.77.53-3.62.41-5.54,0-.07-.02-.14-.05-.2-.14-.29-.36-.52-.67-.68-.87-.45-1.86-.88-2.97-1.29-2.92-1.07-5.32-1.91-8.07-2.64-3.76-1-7.55-1.84-11.35-2.5-3.57-.62-6.8-1.1-9.68-1.42-1.62-.18-3.1-.33-4.44-.45-.23-.02-.39-.03-.47-.04-.83-.03-2.53-.26-3.45-.27-1.17,0-2.17-.14-3.45-.2-6.66-.28-13.2-.24-19.62.14-2.11.12-4.95.41-7.07.56-1.28.09-4.16.47-8.63,1.14-5.95.88-11.87,2.24-17.75,4.07-2.01.63-4.25,1.47-6.7,2.54-1.2.52-1.11,1.23-1.08,2.48.03,1.31.21,2.73.54,4.25.02.11.13.17.23.15.01,0,.03,0,.04-.01,1.08-.47,2.11-.87,3.1-1.19,4.64-1.54,9.34-2.79,14.09-3.74,4.89-.97,9.82-1.71,14.8-2.2.36-.04,2.22-.2,5.59-.49.62-.05,1.12-.08,1.49-.08,1.29,0,2.32-.2,3.7-.19.16,0,1.4-.04,3.7-.12,1.15-.04,2.78-.06,4.88-.06,2.99,0,5.29.13,8.4.17.69.01,1.86.05,3.51.13,4.65.21,9.42.63,14.3,1.27,1.87.24,3.83.54,5.88.9,3.02.52,6.45,1.29,10.28,2.29,3.51.92,6.93,2.04,10.27,3.34.09.04.2,0,.23-.1,0,0,0-.02,0-.03ZM94.08,196.35c.6.25,1.32.38,1.95.29,1.3-.19,2.6-.47,3.92-.85,2.65-.77,4.77-1.51,9.63-3.14,1.39-.47,2.74-.79,4.07-1.19.98-.3,2-.58,3.06-.85,5.4-1.35,10.99-2.38,16.78-3.08.5-.06,1.01-.03,1.46-.15.23-.06.6-.1,1.09-.1.8,0,1.64-.18,2.34-.23,4.47-.28,7.81-.39,10.03-.33,2.4.06,4.08.1,5.04.12.64.01,1.32.05,2.05.12.79.07,1.56.11,2.32.18,5.87.52,11.65,1.43,17.36,2.74,5.52,1.26,10.97,2.88,16.36,4.85,2.33.85,4.71,1.47,7.12,1.85,1.86.29,3.71-.39,4.51-2.17.98-2.17.53-4.98-1.63-6.2-.68-.39-1.48-.76-2.38-1.11-9.6-3.72-19.67-5.9-29.98-7.04-2.89-.32-5.22-.53-7-.63-1.15-.06-1.77-.1-1.86-.11-.87-.09-1.49-.14-1.86-.14-.5,0-2.09-.07-4.76-.2-1.32-.06-5.28-.07-11.87-.02-1.54.01-2.97.19-4.59.21-1.65.02-4.04.29-5.69.43-5.12.42-10.29,1.08-15.52,1.99-2.66.46-5.32,1.03-7.97,1.69-2.95.74-5.56,1.5-7.83,2.27-2.88.99-4.86,1.74-5.93,2.27-1.85.91-2.75,2.44-2.68,4.59.05,1.54.93,3.3,2.45,3.94ZM199.76,212.3c1.94-.17,3.14-1.16,3.62-2.97.16-.62.35-1.28.36-1.84.02-2.41-.78-4.43-2.41-6.06-.28-.28-1-.77-1.3-.79-3.38-.24-6.78-.99-10.22-2.24-10.2-3.71-20.76-6.1-31.69-7.16-.72-.07-1.35-.04-1.91-.14-.4-.07-.87-.11-1.43-.12-.92-.02-2.06-.08-3.42-.18-.77-.06-2.98-.06-6.62-.02-1.48.02-2.64.16-3.95.18-.53,0-1.51.07-2.95.19-1.18.1-2.16.19-2.94.28-8.51.98-16.86,2.78-25.04,5.41-2.39.77-5.06,1.8-7.61,2.54-1.27.37-2.26.61-2.95.73-.81.14-2.09.32-3.83.53-.64.08-1.17.33-1.6.77-1.6,1.62-2.36,3.54-2.29,5.75.03.82.09,1.44.19,1.86.66,2.79,2.8,3.82,5.49,3.26,1.85-.39,3.42-.81,5.36-1.52.87-.31,3.54-1.36,8.03-3.13,7-2.76,14.76-4.74,23.28-5.93.31-.04,2.06-.24,5.25-.59.85-.09,1.65-.05,2.43-.15.56-.07,1.17-.11,1.82-.13,2.93-.07,5.92-.06,8.98,0,1.07.02,1.88.18,2.87.2.4,0,1.12.07,2.15.17,2.03.21,3.5.38,4.4.49,1.6.2,3.22.45,4.86.77,2.9.56,5.75,1.23,8.54,2.01,2.58.72,5.39,1.64,8.42,2.76,4.41,1.63,8.66,3.74,13.29,4.72,1.29.27,2.24.38,2.85.33ZM198.96,216.33s.04-.08,0-.11c-.02-.02-.04-.03-.06-.03-1.27,0-2.54-.14-3.81-.44-1.92-.45-3.69-1.02-5.48-1.74-2.97-1.2-5.09-2.06-6.34-2.55-2.96-1.18-6.5-2.32-10.63-3.44-3.44-.93-7.09-1.66-10.95-2.19-7.96-1.08-15.87-1.25-23.75-.52-1.2.11-2.48.26-3.82.45-2.62.37-5.34.85-8.14,1.44-4.09.86-8.23,2.06-12.42,3.59-1.52.56-3.56,1.36-6.1,2.42-3.09,1.28-5.89,2.34-8.57,2.85-.94.18-1.72.27-2.32.29-.03,0-.06.02-.06.05,0,.02,0,.04.02.05,1.47,1.24,3.38,1.62,5.32,1.63,25.25.11,54.76.12,88.54.02,2.08,0,3.16.07,4.33-.11,1.52-.22,3.01-.56,4.23-1.66Z"/>
      <path d="M125.98,95.92c2.97.99,4.22,5.23,2.81,9.46-1.42,4.23-4.97,6.86-7.93,5.86t0,0c-2.97-.99-4.22-5.23-2.81-9.46,1.42-4.23,4.97-6.86,7.93-5.86t0,0ZM124.74,99.87c-.93-.33-2.29,1.12-3.03,3.24h0c-.74,2.12-.59,4.1.35,4.43.93.33,2.29-1.12,3.03-3.24h0c.74-2.12.59-4.1-.35-4.43Z"/>
      <path d="M169.33,95.91c2.96-1.01,6.52,1.57,7.96,5.78,1.44,4.2.21,8.43-2.75,9.44-2.96,1.01-6.52-1.57-7.96-5.78-1.44-4.2-.21-8.43,2.75-9.44h0ZM170.58,99.86c-.93.34-1.06,2.3-.29,4.36.76,2.07,2.14,3.46,3.06,3.12.93-.34,1.06-2.3.29-4.36-.76-2.07-2.14-3.46-3.06-3.12Z"/>
      <path d="M133.93,119.62c3.33.82,5.16,5.02,4.09,9.39h0c-1.07,4.37-4.64,7.25-7.97,6.43h0c-3.33-.82-5.16-5.02-4.09-9.39,0,0,0,0,0,0,1.07-4.37,4.64-7.25,7.97-6.43h0ZM132.98,123.42c-1.25-.3-2.71,1.29-3.26,3.57-.55,2.27.02,4.36,1.27,4.66,1.25.3,2.71-1.29,3.26-3.57.55-2.27-.02-4.36-1.27-4.66Z"/>
      <path d="M169.49,126.22c.45,2.16.22,4.39-.85,6.31-1.05,1.87-2.95,3.15-5.08,3.01-3.41-.23-5.63-3.64-6.28-6.74-.65-3.11,0-7.13,3.03-8.71,1.89-.99,4.15-.58,5.86.7,1.75,1.32,2.87,3.27,3.32,5.43ZM162.48,123.45c-1.27.28-1.89,2.35-1.38,4.62h0c.5,2.27,1.94,3.89,3.21,3.6t0,0c1.27-.28,1.89-2.35,1.38-4.62h0c-.5-2.27-1.94-3.89-3.21-3.6h0Z"/>
      <path d="M112.97,123.1c2.76.71,4.11,4.72,3.02,8.97-1.09,4.24-4.21,7.11-6.97,6.4-2.76-.71-4.11-4.72-3.02-8.97,1.09-4.24,4.21-7.11,6.97-6.4h0ZM111.98,127.32c-.63-.17-1.58,1.27-2.11,3.22-.53,1.95-.45,3.67.19,3.85,0,0,0,0,0,0,.63.17,1.58-1.27,2.11-3.22.53-1.95.45-3.67-.19-3.85h0Z"/>
      <path d="M182.19,123.13c2.74-.8,5.96,1.99,7.19,6.23,1.23,4.23,0,8.31-2.73,9.11s-5.96-1.99-7.19-6.23c-1.23-4.23,0-8.31,2.73-9.11ZM183.39,127.38c-.66.2-.7,1.95-.1,3.92h0c.6,1.96,1.62,3.39,2.27,3.19.66-.2.7-1.95.1-3.92h0c-.6-1.96-1.62-3.39-2.27-3.19Z"/>
      <path d="M119.41,144.67c3.22.85,4.85,5.23,3.65,9.79,0,0,0,0,0,0-1.2,4.56-4.79,7.56-8.01,6.71-3.22-.85-4.85-5.23-3.65-9.79,0,0,0,0,0,0,1.2-4.56,4.79-7.56,8.01-6.71h0ZM118.31,148.59c-1.13-.28-2.52,1.44-3.12,3.84t0,0c-.59,2.4-.16,4.57.96,4.85h0c1.13.28,2.52-1.44,3.12-3.84t0,0c.59-2.4.16-4.57-.96-4.85h0Z"/>
      <path d="M176.09,144.62c3.21-.79,6.72,2.28,7.84,6.85,1.12,4.57-.57,8.92-3.77,9.7-3.21.79-6.72-2.28-7.84-6.85-1.12-4.57.57-8.92,3.77-9.7ZM177,148.6c-1.1.29-1.47,2.47-.83,4.86h0c.64,2.39,2.05,4.09,3.15,3.8h0c1.1-.29,1.47-2.47.83-4.86h0c-.64-2.39-2.05-4.09-3.15-3.8h0Z"/>
    </g>
  </g>
</svg>