<?xml version="1.0" encoding="UTF-8"?>
<svg id="Layer_2" data-name="Layer 2" xmlns="http://www.w3.org/2000/svg" viewBox="0 0 71.3 21.09">
  <defs>
    <style>
      .cls-1 {
        fill: none;
      }

      .cls-2 {
        fill: #606060;
      }

      .cls-3 {
        opacity: .5;
      }
    </style>
  </defs>
  <g id="Layer_1-2" data-name="Layer 1">
    <g class="cls-3">
      <g>
        <path class="cls-2" d="M1.14,6.66c.27.11.53.21.8.31.83.31,1.65.62,2.48.93.21.08.41.19.56.36.22.24.31.52.31.84,0,1.76,0,3.51,0,5.27,0,.02,0,.03,0,.06-.02,0-.03,0-.04-.01-.85-.35-1.71-.7-2.55-1.07-.9-.4-1.4-1.1-1.54-2.07-.01-.09-.02-.18-.02-.28,0-1.43,0-2.85,0-4.28,0-.02,0-.04,0-.06Z"/>
        <path class="cls-2" d="M5.92,14.43v-.09c0-1.73,0-3.46,0-5.19,0-.61.28-1.02.85-1.24.92-.35,1.84-.69,2.76-1.04.16-.06.31-.12.47-.19.02,0,.05-.02.08-.03v.08c0,1.4,0,2.81,0,4.21,0,1.09-.62,2.01-1.63,2.43-.81.34-1.63.68-2.44,1.02-.02.01-.05.02-.08.03Z"/>
      </g>
      <g>
        <g>
          <path class="cls-2" d="M28.1,14.19c-2.63,0-3.27-.79-3.27-1.95v-4.74c0-.24.12-.35.38-.35h1.66c.27,0,.38.11.38.35v4.37c0,.26.13.45.87.45s.88-.19.88-.45v-4.37c0-.24.11-.35.38-.35h1.61c.26,0,.38.11.38.35v4.74c0,1.17-.65,1.95-3.27,1.95Z"/>
          <path class="cls-2" d="M32.98,14.05c-.27,0-.38-.11-.38-.35v-1.12c0-.24.12-.35.38-.35h2.85c.18,0,.28-.12.28-.28,0-.22-.1-.31-.28-.33l-1.59-.2c-1-.13-1.64-.52-1.64-1.59v-1.01c0-1.09.82-1.69,2.19-1.69h2.97c.26,0,.38.11.38.35v1.14c0,.24-.12.35-.38.35h-2.47c-.18,0-.29.12-.29.29s.11.29.29.31l1.58.19c1,.13,1.65.52,1.65,1.59v1.01c0,1.09-.83,1.69-2.19,1.69h-3.35Z"/>
          <path class="cls-2" d="M41.46,14.05c-.26,0-.38-.11-.38-.35v-4.71h-1.56c-.26,0-.38-.11-.38-.35v-1.16c0-.24.12-.35.38-.35h5.6c.26,0,.38.11.38.35v1.16c0,.24-.12.35-.38.35h-1.56v4.71c0,.24-.12.35-.38.35h-1.72Z"/>
          <path class="cls-2" d="M49.65,14.19c-2.65,0-3.3-.79-3.3-1.95v-3.27c0-1.17.65-1.96,3.3-1.96s3.28.8,3.28,1.96v3.27c0,1.17-.64,1.95-3.28,1.95ZM49.65,12.34c.77,0,.89-.19.89-.45v-2.58c0-.25-.12-.44-.89-.44s-.89.19-.89.44v2.58c0,.26.13.45.89.45Z"/>
          <path class="cls-2" d="M54.66,14.05c-.26,0-.38-.11-.38-.35v-6.21c0-.24.12-.35.38-.35h1.71c.22,0,.36.08.49.29l.95,1.56c.07.11.11.16.19.16h.1c.09,0,.12-.05.19-.16l.94-1.56c.13-.21.27-.29.49-.29h1.72c.26,0,.38.11.38.35v6.21c0,.24-.12.35-.38.35h-1.63c-.28,0-.38-.11-.38-.35v-3.37l-.62,1.04c-.13.22-.29.31-.56.31h-.42c-.28,0-.43-.09-.56-.31l-.63-1.04v3.37c0,.24-.12.35-.38.35h-1.58Z"/>
          <path class="cls-2" d="M63.47,14.05c-.27,0-.38-.11-.38-.35v-1.12c0-.24.12-.35.38-.35h2.85c.18,0,.28-.12.28-.28,0-.22-.1-.31-.28-.33l-1.59-.2c-1-.13-1.64-.52-1.64-1.59v-1.01c0-1.09.82-1.69,2.19-1.69h2.97c.26,0,.38.11.38.35v1.14c0,.24-.12.35-.38.35h-2.47c-.18,0-.29.12-.29.29s.11.29.29.31l1.58.19c1,.13,1.65.52,1.65,1.59v1.01c0,1.09-.83,1.69-2.19,1.69h-3.35Z"/>
        </g>
        <path class="cls-2" d="M15.64,7.05h.08c.73,0,1.47,0,2.2,0,.26,0,.45.19.45.45,0,.67,0,1.35,0,2.02v.09c.15,0,.3,0,.44,0,.13.01.2-.04.27-.14.53-.72,1.07-1.44,1.6-2.16.13-.18.3-.26.52-.26.71,0,1.42,0,2.12,0,.08,0,.16.01.23.04.11.05.16.15.12.27-.02.06-.06.13-.1.18-.76.98-1.52,1.96-2.29,2.94-.04.05-.04.08,0,.12.77.98,1.53,1.96,2.29,2.94.04.05.08.12.1.18.04.11,0,.22-.12.27-.06.03-.13.04-.19.04-.74,0-1.48,0-2.22,0-.2,0-.34-.09-.46-.24-.55-.75-1.11-1.5-1.66-2.25-.04-.05-.07-.07-.14-.07-.17,0-.35,0-.52,0v2.56s-.05,0-.08,0c-.74,0-1.48,0-2.22,0-.27,0-.43-.16-.43-.43,0-2.17,0-4.33,0-6.5v-.07Z"/>
      </g>
    </g>
    <rect class="cls-1" width="71.3" height="21.09"/>
  </g>
</svg>