<?xml version="1.0" encoding="UTF-8"?>
<svg id="Layer_2" data-name="Layer 2" xmlns="http://www.w3.org/2000/svg" viewBox="0 0 247.48 247.48">
  <defs>
    <style>
      .cls-1 {
        fill-rule: evenodd;
      }

      .cls-2 {
       fill: #8e8e8e;
      }

      .cls-1 {
        stroke: white;
      }
    </style>
  </defs>
  <g id="Layer_1-2" data-name="Layer 1">
    <g>
       <g class="cls-2">
      <path d="M123.74,247.48C55.51,247.48,0,191.97,0,123.74S55.51,0,123.74,0c6.21,0,11.25,5.04,11.25,11.25s-5.04,11.25-11.25,11.25c-55.83,0-101.24,45.42-101.24,101.24s45.42,101.24,101.24,101.24,101.24-45.42,101.24-101.24c0-6.21,5.04-11.25,11.25-11.25s11.25,5.04,11.25,11.25c0,68.23-55.51,123.74-123.74,123.74ZM202.49,89.99c-6.21,0-11.25-5.04-11.25-11.25v-22.5h-22.5c-6.21,0-11.25-5.04-11.25-11.25s5.04-11.25,11.25-11.25h22.5V11.25c0-6.21,5.04-11.25,11.25-11.25s11.25,5.04,11.25,11.25v22.5h22.5c6.21,0,11.25,5.04,11.25,11.25s-5.04,11.25-11.25,11.25h-22.5v22.5c0,6.21-5.04,11.25-11.25,11.25Z"/>
   
        <path class="cls-1" d="M67.25,61.74c5.01-3.53,10.99-5.45,17.12-5.49,4.61,0,11.28,1.29,17.12,5.49,6.41,4.61,11,12.22,11,22.63s-4.59,18.01-11,22.62c-5.01,3.54-10.99,5.46-17.12,5.5-4.61,0-11.28-1.29-17.12-5.5-6.41-4.61-11-12.19-11-22.62s4.59-18.01,11-22.63ZM172.46,235.6c25.65-8.63,75.02-42.76,75.02-111.86,0-6.21-5.04-11.25-11.25-11.25h-11.25c-54.03,0-92.36,12.06-118.74,29.5,22.89,7.45,45.85,20.47,63.33,42.2,3.9,4.85,3.12,11.93-1.72,15.83-4.85,3.9-11.93,3.12-15.83-1.72-17.04-21.19-41.06-32.76-65.2-38.36-13.03-2.98-26.36-4.44-39.72-4.36-8.82.03-16.62.74-22.77,1.77-.86.15-1.74.19-2.61.13l-1.08.18c-6.13,1.02-10.27,6.82-9.24,12.95.14.83.37,1.65.69,2.43,7.33,17.82,24.02,41.88,50.73,57.34,27.22,15.74,63.94,22.03,109.62,5.24Z"/>
      </g>
    </g>
  </g>
</svg>