<?xml version="1.0" encoding="UTF-8"?>
<svg id="Layer_2" data-name="Layer 2" xmlns="http://www.w3.org/2000/svg" viewBox="0 0 295.22 295.22">
  <defs>
    <style>
      .cls-1 {
        fill: #fff;
      }

      .cls-2 {
        opacity: .7;
      }

      .cls-3 {
        fill: #060807;
      }
    </style>
  </defs>
  <g id="Layer_1-2" data-name="Layer 1">
    <rect class="cls-1" width="295.22" height="295.22"/>
    <g class="cls-2">
      <path class="cls-3" d="M262.02,155.27c-.68-.55-.89-.85-1.08-1.61-.49-1.84-1.31-3.53-2.45-5.01-.37-.48-.88-.93-1.37-1.37-.36-.32-.7-.63-.93-.9-.03-.04-.06-.09-.07-.13,0-.03-.05-.23-.25-1.19-.44-2.15-2.01-5-4.41-6.17-.09-.04-.14-.14-.13-.24.35-2.46.45-5.06.29-7.73-.14-2.46-.31-4.41-.5-5.77-.25-1.82-.66-4.43-1.23-7.75-.15-.88-.35-1.78-.54-2.65-.1-.45-.2-.9-.29-1.35-1.13-5.42-2.06-10.05-2.76-13.73-.26-1.37-.45-2.73-.58-4.06,0-.04,0-.08.02-.12.29-.61.48-.76.55-.79.53-.27,1.4-.49,2.6-.68,1.62-.25,3.51-.28,5.63-.1,1.78.15,3.01.24,3.67.26,1.75.06,3.51-.27,5.22-.98,2.25-.93,4.35-3.14,3.97-5.99-.14-1-.57-2.82-1.99-3.81-1.52-1.05-3.36-1.7-5.65-1.98-2.64-.32-5.2-.09-7.61.69-2.56.82-4.86,2.09-6.85,3.78-.12-1.04-.25-2.06-.38-3.02-.18-1.29-.88-3.09-2.27-3.94-1.05-.65-2.5-.99-3.87-.92-2.61.13-5.15.71-7.55,1.72-1.87.79-3.72,1.72-5.51,2.79-2.05,1.22-4.04,2.47-5.91,3.72-4.55,3.05-8.09,5.31-11.66,7.14-2.16,1.1-4.46,2-6.83,2.67-2.4.68-5.28.94-7.9.71-3.42-.29-6.65-1.7-9.59-4.2-1.93-1.64-4.18-3.62-6.69-5.88-.69-.62-1.41-1.23-2.11-1.83-.72-.62-1.47-1.25-2.16-1.87-2.03-1.85-4.27-3.6-6.38-5.22-1.8-1.38-3.83-2.73-6.04-4.03-1.88-1.1-3.76-1.89-5.61-2.34-1.93-.48-3.45.01-4.4,1.41-1.95,2.89-3.86,5.63-5.68,8.13-4.77,6.59-10.06,12.93-15.73,18.82-9.62,10-21.31,18.75-34.75,26.01-4.55,2.46-8.81,4.57-12.66,6.29-3.59,1.6-8.16,3.44-13.59,5.49-3.89,1.46-7.58,2.73-10.99,3.76-4.3,1.3-8.06,2.4-11.16,3.29-2.91.83-4.84,1.44-5.73,1.8-3.38,1.38-5.89,3.7-7.45,6.87-.18.37-.34.81-.51,1.28-.21.59-.43,1.2-.7,1.67-1.05,1.83-1.77,3.31-2.16,4.41-1.23,3.51-1.69,7.2-1.37,10.98.26,3.08,1.2,6.1,2.81,8.98,1.01,1.82,2.45,3.75,4.29,5.75,1.79,1.95,3.59,3.55,5.35,4.77,3.19,2.2,5.38,3.64,6.53,4.29.97.55,2.56,1.43,4.71,2.62,2.35,1.29,4.61,2.44,6.8,3.55,1.22.61,2.47,1.25,3.72,1.9,5.97,3.11,12.15,6.19,18.37,9.14,8.38,3.98,17.28,7.08,26.44,9.23,1.24.29,2.35.05,3.28-.72.13-.1.2-.26.19-.43v-.05s-.05-.26-.05-.26h0l.12.41c.21.75.47,1.67,1.49,1.96.99.28,2.78.57,5.33.85,1.9.21,5.09.4,9.5.58.52.02,1.05.03,1.59.03.96,0,1.94-.03,2.93-.1.26-.02.55,0,.82,0,.25.01.49.02.71.01,3.82-.18,7.47-.47,10.85-.86,1.39-.16,2.58-1.5,3.17-2.42.61,1.89,2.77,1.41,3.49,1.25,3.87-.87,7.23-1.81,9.99-2.78,3.82-1.35,6.67-2.45,8.49-3.27,2.08-.93,3.23-1.45,3.42-1.52.2-.08.38-.19.54-.33l.64-.57c.1-.09.18-.2.22-.33.06-.16.14-.29.25-.38.04-.04.1-.06.16-.06.89-.02,2.01-.41,3.42-1.19,1.57-.87,5.13-2.56,10.59-5.03,1.97-.89,4.68-1.96,8.06-3.18.27-.1.53-.22.77-.37l.93-.55.9-1.02c.65.41,1.39.5,2.21.26.56-.16,1.37-.39,2.42-.69,1.03-.29,2.05-.48,3.12-.68.6-.11,1.21-.22,1.89-.36.7-.14,1.56-.29,2.55-.44,5.1-.77,8.38-1.27,9.75-1.49.6-.1,1.08-.2,1.42-.32.95-.33,1.47-.85,2.14-1.66.84,1.1,2.1.85,3.12.64,1.99-.41,4.68-1.08,8-1.98,4.36-1.19,8.68-2.77,12.83-4.7,1.37-.64,2.42-1.27,3.11-1.87.17-.15.43-.43.79-.87.05-.06.1-.1.17-.14.54-.32,1.04-.59,1.49-.81.63-.31,1.1-.67,1.7-1.12.22-.17.46-.35.73-.55.41-.3,1.51-1.35,3.34-3.21,1.4-1.41,2.64-3.24,3.44-4.53,3.29-5.32,5.35-13.87.34-20.5-.28-.38-.71-.8-1.27-1.25ZM245.93,90.56c.05-.09.11-.17.18-.24,1.92-2,4.24-3.45,6.89-4.33,1.54-.51,3.09-.76,4.64-.76,1.27,0,2.53.17,3.79.51,1.44.38,2.24,1.09,2.22,1.94-.03,1.01-1.19,2-2.71,2.31-1.11.23-2.24.34-3.35.32-.09,0-1.45-.12-4.06-.33-.05,0-.19-.01-.4-.03-2.08-.17-4.22-.04-6.37.38-.28.05-.56.14-.83.25ZM226.64,190.07c-.46-.49-1.12-.71-1.96-.64-.13.01-.26.05-.37.11-1,.58-1.5,1.61-1.97,2.61-.31.66-.64,1.34-1.11,1.86-.04.04-.09.07-.14.08-.21.03-.41.08-.61.13-.22.05-.46.1-.71.14-8.01,1.21-12.9,1.99-14.55,2.34-1.61.34-3.06.69-4.3,1.02-.06,0-.09-.04-.1-.09-.05-.91-.4-1.68-.94-2.07-.43-.31-.97-.38-1.56-.21-1.05.3-1.7.87-1.93,1.71-.17.62-.35,1.34-.52,2.14-.02.08-.07.14-.14.17-.83.39-1.54.7-2.11.91-1.18.43-2.53.99-3.72,1.48-.94.39-1.83.75-2.43.97-.75.28-2.13.89-4.1,1.83-3.43,1.63-6.04,2.89-7.76,3.75-.01-.12-.04-.25-.09-.37-.87-2.29-1.79-2.54-2.41-2.36-.87.26-1.46.82-1.78,1.67-.46,1.26-.85,2.44-1.16,3.52-.09.31-.31.55-.6.68-.26.11-.5.24-.72.36-.24.13-.49.27-.78.39-6.68,2.81-12.66,4.76-18.26,5.96-.02,0-.03,0-.05,0-.04,0-.08-.02-.11-.06-.03-.03-.04-.07-.04-.12.1-1.08-.6-2.59-1.76-3.02-.77-.29-1.53-.1-2.24.57-.08.07-.15.16-.2.25-.65,1.1-1.29,2.12-1.91,3.05-.24.36-.44.48-.89.54-1.29.17-2.1.26-2.39.26-.4,0-.73.06-1.07.12-.31.06-.61.11-.94.11-.95,0-1.93.1-2.8.17-.48.04-.94.08-1.36.11-4.05.24-8.44.21-13.05-.11l-.51-.04c-2.6-.2-4.67-.42-6.13-.67-.17-.03-.29-.18-.29-.36.06-1.16-.01-2.77-1.35-3.33-.26-.11-.51-.16-.75-.16-.91,0-1.71.68-2.49,1.35-.51.44-1.04.89-1.6,1.14-.03.02-.07.02-.11.02-.52-.08-.99-.18-1.4-.28-3.75-.98-6.56-1.78-8.35-2.35-1.99-.64-4.2-1.41-6.59-2.28-3.67-1.34-7.68-3.06-11.9-5.13-9.41-4.61-18.91-9.48-28.25-14.49-1.39-.75-2.86-1.59-4.39-2.5-5.66-3.4-9.94-7.42-12.7-11.97-1.55-2.54-2.44-5.32-2.64-8.24-.01-.2-.05-.39-.08-.57-.04-.25-.09-.48-.08-.71.02-1.01.14-2.26.37-3.71.38-2.45,1.16-4.75,2.32-6.84.32-.58.69-1.09,1.1-1.51.03-.03.07-.06.11-.07.73-.22,2.01.15,2.88.53,2.36,1.05,4.15,2.74,5.32,5.03.75,1.47,1.36,2.9,1.96,4.62,1.05,3.02,2.12,5.59,3.19,7.64,1.81,3.47,4.05,6.88,6.66,10.15,3.96,4.95,8.54,9.22,13.64,12.7,4.15,2.83,8.46,5.19,12.79,7.01,4.04,1.7,7.91,3.07,11.48,4.07,3.39.95,7.37,1.8,11.85,2.53,5.23.85,11.63,1.33,19.03,1.41.31,0,1.14-.04,2.55-.13.94-.06,1.79-.09,2.5-.11.61,0,1.15-.07,1.66-.14.47-.06.96-.12,1.51-.13.25,0,.67-.04,1.29-.11,4.36-.48,8.61-1.14,12.62-1.97,6.39-1.33,12.76-3.28,18.91-5.81,5.1-2.09,9.55-4.1,13.24-5.97,4.91-2.5,9.13-4.54,12.56-6.07.87-.39,1.62-.7,2.23-.91.48-.17.91-.36,1.37-.55.5-.21,1.02-.43,1.64-.65,2.76-.98,4.45-1.55,5.02-1.71,4.54-1.22,7.81-2.02,9.71-2.39,5.21-1.01,8.91-1.74,10.98-2.18,3.17-.66,6.61-1.52,10.22-2.55,3.37-.96,7.26-2.42,11.56-4.34.3-.14,1.5-.81,3.66-2.06,3.05-1.77,5.95-4.1,8.39-6.72,1.79-1.93,3.24-4.28,4.32-7,.28-.71.49-1.48.62-2.28.41.52.74,1.09.98,1.69.94,2.33,1.14,4.89.58,7.62-.27,1.31-.55,2.34-.85,3.06-1.75,4.25-4.6,7.91-8.48,10.89-.02,0-.05-.01-.05-.04l-.11-.51c-.03-.17-.13-.31-.27-.41-.71-.51-1.33-.66-1.85-.45-.58.23-.98.9-1.17,1.97-.17.9-.38,1.66-.65,2.26-.04.08-.09.15-.17.19-.54.33-1.34.74-2.36,1.22-2.18,1.03-4.31,1.9-6.33,2.57-3.44,1.15-6.1,1.95-7.93,2.39-1.95.47-3.54.87-4.74,1.18-.01,0-.02,0-.03-.04.18-1.21-.04-2.22-.61-2.83ZM240.04,85.68c-.86,1.68-2.23,4.13-4.16,5.93-.26.24-.62.44-1.07.58-1.24.38-2.11.67-2.57.85-2.75,1.08-4.23,3.1-4.41,6.02-.03.46.06,1.32.29,2.64,0,.03,0,.06-.01.09-.13.28-.32.54-.57.78-5.32,5.02-11.43,7-18.16,5.88-2.35-.39-4.65-1.12-6.82-2.16-3.27-1.57-6.48-3.52-9.55-5.81l1.9.35s.05,0,.1,0c1.29-.09,2.71-.23,4.23-.43,2.63-.35,5.3-1.12,7.91-2.3,3.13-1.41,6.03-2.98,8.61-4.66,5.5-3.57,9.4-6.05,11.57-7.38,1.72-1.05,3.71-2.02,5.92-2.88,1.43-.56,2.99-.86,4.34-1.1.94-.17,1.87-.14,2.75.09.04,0,.07.03.1.06.79.95.22,2.28-.38,3.45ZM209.74,112.61c.42.03.81.05,1.24.13.23.04.59.07,1.12.09,1.67.06,3.44-.07,5.25-.38,4.12-.71,7.76-2.45,10.82-5.17.8-.71,1.44-1.32,1.9-1.82.67.7,1.49,1.27,2.46,1.69,1.63.72,2.87.51,3.68-.61.33-.46.28-1.09-.13-1.43-.68-.57-1.29-.62-2.21-.69h-.14c-.06-.02-.11-.04-.16-.07-.98-.61-2.04-2.81-2.18-4.11-.24-2.21.75-3.74,2.78-4.31.06-.02.12-.03.18-.03,1.16-.04,2.22-.27,3.14-.68.14-.06.27-.14.38-.23,1.19-.97,2.18-2.23,2.95-3.77.07-.14.29-.46.91-1.18-.44,1.47-.25,3.14,0,4.88.61,4.27,1.25,8.02,1.92,11.13.86,4.04,1.68,8.08,2.44,11.99.85,4.42,1.39,8.63,1.61,12.5.07,1.35.08,2.83,0,4.4-.09,2.06-.22,3.53-.37,4.37-.5,2.78-1.42,4.95-2.97,7.04-1.45,1.94-3.27,3.65-5.41,5.09-4.21,2.81-9.17,5.03-15.61,6.98-3.14.95-6.03,1.77-8.58,2.44-2.48.65-4.43,1.2-5.79,1.63-.19.06-.38.11-.57.17.71-.32,1.32-.75,1.81-1.29,2.72-3.01,2.53-6.12,1.54-7.87-.9-1.59-2.42-2.31-4.51-2.13-2.91.25-5.23,2.74-6.24,5.08-.71,1.64-.84,3-.41,4.14h0c.36.97.52,1.22.62,1.34.9,1.09,1.99,1.65,3.26,1.65.03,0,.06,0,.08,0,.07,0,.14,0,.22-.01-.35.08-.71.15-1.06.23-1.11.24-2.15.46-3.15.72-5.6,1.43-11.08,3.46-16.29,6.02-4.67,2.3-8.83,4.59-13.64,7.24l-1.28.71c-1,.55-2.25,1.19-3.72,1.91-1.57.77-2.84,1.38-3.78,1.81-4.9,2.27-9.62,4-14.02,5.16-4.96,1.31-9.46,2.19-13.37,2.61-.67.07-1.19.14-1.55.2-.57.1-1.07.15-1.51.15-.67.01-1.33.07-2.03.13-.72.06-1.47.13-2.28.15-4.27.1-7.36.08-9.19-.07-1.73-.14-2.89-.21-3.45-.22-.75,0-1.29-.05-1.62-.12-.45-.1-.91-.12-1.35-.14-.3-.01-.6-.03-.9-.06-6.7-.81-13.3-1.91-19.6-3.27-.32-.07-.69-.16-1.08-.25-.64-.16-1.37-.33-2.05-.46-.64-.12-1.06-.2-1.24-.25-7.37-1.85-14.08-3.82-19.94-5.84-2.09-.72-5.18-1.9-9.18-3.49-.34-.14-.71-.27-1.1-.42-1.1-.41-2.34-.87-3.4-1.47-.23-.13-.61-.49-1.1-1.46-1.12-2.21-2.36-5.29-3.7-9.17-.28-.81-.68-1.76-1.2-2.8-1.67-3.38-4.81-6.09-8.19-7.06-.82-.24-1.66-.39-2.5-.46,1.66-1.92,3.67-3.29,5.99-4.07.68-.23,2.02-.61,3.99-1.16,4.72-1.3,9.05-2.56,12.86-3.76,3.82-1.2,8.31-2.75,13.35-4.61,6.98-2.58,14.34-5.92,21.88-9.94,4.38-2.33,7.76-4.26,10.04-5.72,3.16-2.03,6.26-4.1,9.22-6.17,3.33-2.32,6.29-4.6,8.8-6.77,3.19-2.75,6.33-5.73,9.33-8.86,1.3-1.35,2.13-2.22,2.45-2.57,6.18-6.72,12.21-14.42,17.9-22.89.37-.55.81-1.12,1.31-1.7.22-.25.46-.32.79-.21,3.42,1.09,6.11,2.8,9.33,5.21,4.16,3.11,8.37,6.93,12.44,10.62,3.08,2.79,5.98,5.43,8.79,7.7.62.5,1.28,1.06,1.97,1.63,1.72,1.43,3.68,3.06,5.55,4.39,3.21,2.29,6.35,4.15,9.33,5.53,1.95.9,4.21,1.62,6.7,2.14.52.11,1,.14,1.46.17ZM207.55,158.58c-.58.64-1.26,1.11-1.9,1.34-.58.2-1.07.17-1.34-.08-.28-.25-.35-.74-.2-1.33.17-.66.58-1.38,1.17-2.01.84-.92,1.87-1.48,2.6-1.48.26,0,.48.07.64.22.62.56.17,2.1-.97,3.34ZM257.31,156.65c-.46,3.87-2.28,7.29-5.58,10.46-2.72,2.62-5.91,4.83-9.48,6.58-2.64,1.3-5.11,2.33-7.32,3.07-5.71,1.89-11.96,3.45-18.58,4.63-5.59,1-10.96,2.22-15.97,3.63-2.59.73-5.28,1.68-8,2.81-5.47,2.29-9.24,4.18-15.47,7.31-1.02.51-2.1,1.05-3.26,1.63-.81.4-3.36,1.54-7.59,3.37-6.49,2.81-13.39,5.03-20.51,6.58-1.99.43-4.7.88-8.05,1.33-6.75.9-13.36,1.22-19.64.95-3.77-.16-7.87-.57-12.17-1.21-2.54-.38-5.23-.92-8-1.6-2.57-.63-4.92-1.29-6.98-1.95-4.72-1.52-9.26-3.47-13.49-5.79-.51-.28-1.18-.68-1.99-1.19-.03-.02-.11-.07-2.03-1.19-1.31-.76-2.71-1.69-4.16-2.75-.65-.47-1.29-.91-1.91-1.33-.77-.53-1.51-1.03-2.21-1.57.38.22.76.42,1.12.6,6.62,3.27,12.9,5.82,18.67,7.56,4.74,1.43,9.5,2.62,14.13,3.52,5.19,1.01,10.28,1.62,17.02,2.04,4.05.26,7.07.34,8.97.26.95-.04,2.48-.12,4.61-.22.73-.04,1.39-.1,1.96-.18.41-.06.81-.09,1.23-.11.42-.03.85-.06,1.34-.12,3.08-.41,5.43-.75,6.96-1.01,6.6-1.13,13.03-2.96,19.67-5.62,3-1.2,6.69-2.89,10.97-5.03,3.27-1.64,6.98-3.53,11.04-5.63,4.47-2.31,8.87-4.25,13.1-5.77,3.12-1.12,6.81-2.17,10.96-3.1,3.29-.74,6.6-1.48,9.83-2.18,1.87-.41,3.75-.87,5.59-1.38,2.44-.67,4.3-1.21,5.54-1.6,3.24-1.02,6.54-2.3,9.81-3.78,3.85-1.74,7.41-4.03,10.57-6.78.7-.61,1.3-1.27,1.88-1.91l.32-.35c2.37-2.58,4.13-5.58,5.24-8.92.24.25.44.56.61.93.97,2.1,1.37,3.74,1.22,5.02ZM252.2,147.42c-.16,1.47-.65,3.05-1.47,4.72-1.48,3.01-3.72,5.68-6.66,7.94-1.9,1.46-3.59,2.6-5.02,3.38-3.45,1.89-7.29,3.53-11.4,4.87-5.44,1.78-11.21,3.26-17.15,4.43-1.03.2-3.75.82-8.1,1.85-1.12.26-2.29.59-3.49.98-.24.08-1.39.44-3.44,1.08-1.89.59-4.57,1.66-7.98,3.17-2.42,1.07-6.45,3.09-11.98,5.98-.08.04-2.34,1.18-6.75,3.41-6.65,3.36-13.67,6.08-20.86,8.08-2.91.81-5.85,1.32-8.7,1.82-.43.07-.85.15-1.27.22-.91.16-2.06.29-2.98.4-.39.05-.74.09-1.02.12-1.15.15-2.03.24-2.62.25-.58.01-1.12.06-1.69.11-.58.05-1.18.11-1.86.12-3.67.09-6.15.1-7.36.05-4.15-.19-4.25-.2-4.25-.2-1.33-.04-2.75-.13-4.22-.28-4.47-.46-8.26-.97-11.26-1.51-.47-.09-1.99-.4-4.52-.94-13.37-2.86-26.03-7.89-37.63-14.97-.32-.19-.61-.43-.88-.72-.42-.44-.97-1.01-1.65-1.72,7.67,3.02,14.16,5.25,20.36,7.02,9.67,2.75,19.42,4.85,28.97,6.24,1.77.26,3.87.47,5.71.66.45.05.89.09,1.31.13,1.74.19,4.7.37,8.78.54,2.21.09,5.19.03,8.84-.19,2.75-.16,5.7-.52,8.78-1.06,3.62-.63,7.1-1.4,10.33-2.27,2.85-.77,5.32-1.55,7.33-2.33,8.19-3.15,15.04-6.9,23.71-11.65,2.97-1.63,6.92-3.71,11.1-5.36,4.88-1.93,9.95-3.54,15.05-4.78,5.41-1.31,9.85-2.43,13.18-3.3,1.38-.36,3.6-1.04,6.6-2.02,4.74-1.54,8.93-3.33,12.43-5.32,3.89-2.21,7.16-5.01,9.2-7.89,1.25-1.76,2.25-3.72,2.97-5.85,1.24,1.39,1.77,3,1.57,4.79Z"/>
      <path class="cls-3" d="M154.14,105.57c.8.72,1.84,1.09,3.01,1.09.42,0,.85-.05,1.3-.14,1.66-.36,3.29-1.35,4.58-2.79,2.68-3,3.06-7.06.85-9.04-1.09-.97-2.62-1.31-4.31-.94-1.66.36-3.29,1.35-4.58,2.79-1.29,1.44-2.09,3.17-2.26,4.86-.17,1.72.33,3.21,1.42,4.18ZM157.93,99.05c1.09-1.13,2.26-1.68,3-1.68.25,0,.45.06.58.19.26.25.29.77.07,1.41-.25.72-.76,1.51-1.44,2.21-1.46,1.51-3.06,2-3.58,1.49-.52-.5-.08-2.12,1.38-3.62Z"/>
      <path class="cls-3" d="M138,108.16c.48,0,.99-.08,1.53-.23,1.52-.43,3.08-1.43,4.38-2.82,1.31-1.39,2.22-3,2.56-4.54.35-1.59.06-2.92-.82-3.75h0c-1.78-1.67-5.44-.67-8.18,2.23-1.31,1.39-2.22,3-2.56,4.54-.35,1.59-.06,2.92.82,3.75.58.54,1.36.82,2.27.82ZM141.09,102.65c-1.44,1.53-2.49,1.95-2.65,1.86-.11-.15.25-1.23,1.68-2.76,1.31-1.39,2.3-1.87,2.59-1.87.03,0,.05,0,.06.01.1.16-.25,1.24-1.68,2.76Z"/>
      <path class="cls-3" d="M237.58,112.78c-.57,1.31.08,2.01.72,2.37.34.18.68.28,1.02.28.23,0,.46-.04.68-.13.67-.26,1.24-.89,1.53-1.7,1.59-4.51.79-8.36-2.37-11.44-.52-.51-1.07-.86-1.66-1.24-.3-.19-.61-.39-.94-.62h1.33c.13,0,.26-.04.36-.12.46-.34.7-.73.71-1.17,0-.5-.31-1.02-.9-1.46-.91-.69-2.37-.44-3.35-.01-1.24.54-1.89,1.92-1.57,3.36.24,1.09,1.26,2.21,3.11,3.43.04.03.08.06.12.1.85.89,1.42,1.81,1.68,2.73.53,1.82.37,3.72-.47,5.63Z"/>
      <path class="cls-3" d="M169.74,114.95c.85.7,1.9,1.04,3.02,1.04,1.97,0,4.14-1.04,5.72-2.95,1.19-1.44,1.89-3.15,1.95-4.83.06-1.7-.53-3.16-1.68-4.11-1.14-.95-2.68-1.26-4.35-.89-1.64.37-3.2,1.36-4.39,2.8-1.19,1.44-1.89,3.15-1.95,4.83-.06,1.7.53,3.16,1.68,4.11ZM175.56,110.62c-.59.7-1.28,1.23-1.96,1.49-.62.24-1.14.23-1.46-.04-.32-.27-.43-.78-.3-1.44.14-.71.54-1.49,1.13-2.19.87-1.03,1.97-1.67,2.76-1.67.26,0,.49.07.66.22.7.59.32,2.25-.83,3.62Z"/>
      <path class="cls-3" d="M145.43,111.09c-1.68.21-3.38,1.06-4.77,2.38-2.9,2.75-3.59,6.76-1.54,8.92.85.89,2.04,1.36,3.42,1.36.26,0,.53-.02.8-.05,1.68-.21,3.38-1.06,4.77-2.38,1.39-1.32,2.33-2.97,2.63-4.64.3-1.7-.08-3.22-1.09-4.28-1.01-1.06-2.51-1.53-4.22-1.31ZM143.19,116.35c1.07-1.12,2.2-1.67,2.94-1.67.27,0,.48.07.63.21.55.53.17,2.12-1.28,3.64-1.45,1.52-3.02,1.98-3.57,1.46-.55-.53-.17-2.12,1.28-3.64Z"/>
      <path class="cls-3" d="M117.72,124.89c.42,0,.86-.05,1.32-.15,1.74-.37,3.31-1.33,3.9-1.73h0c.59-.4,2.08-1.48,3.09-2.95,1-1.46,1.24-2.9.71-4.18-.31-.73-.82-1.25-1.53-1.54-1.02-.42-2.44-.32-3.79.25-1.04.44-2.05.99-3.01,1.63-.96.64-1.85,1.37-2.66,2.16-1.05,1.03-1.68,2.3-1.68,3.41,0,.77.28,1.45.84,2.01.72.72,1.67,1.08,2.81,1.08ZM118.18,121.29c.16-.31.86-1.09,2.22-2.05,1.36-.95,2.33-1.35,2.68-1.4-.16.31-.86,1.09-2.22,2.05-1.36.95-2.33,1.35-2.68,1.4Z"/>
      <path class="cls-3" d="M194.46,116.99c-1.13-1.01-2.68-1.42-4.35-1.15-1.65.27-3.23,1.17-4.46,2.53-2.54,2.84-2.71,6.83-.39,8.91.93.83,2.11,1.23,3.36,1.23,1.88,0,3.92-.9,5.44-2.61,1.22-1.37,1.94-3.04,2.02-4.71.08-1.69-.5-3.18-1.63-4.19ZM191.14,123.37c-.63.67-1.37,1.15-2.09,1.36-.67.19-1.23.12-1.57-.2-.74-.7-.32-2.4.92-3.72.63-.67,1.37-1.15,2.09-1.36.25-.07.48-.11.69-.11.36,0,.67.1.89.31.74.7.32,2.4-.92,3.72Z"/>
      <path class="cls-3" d="M157.05,119.47c-2.84,2.61-3.52,6.52-1.51,8.7.86.94,2.1,1.44,3.53,1.44.2,0,.39,0,.6-.03,1.65-.16,3.31-.93,4.67-2.19,2.84-2.61,3.52-6.52,1.51-8.7-2.01-2.18-5.96-1.84-8.8.78ZM161.88,124.73c-.67.63-1.43,1.07-2.13,1.26-.65.17-1.17.09-1.46-.22-.63-.67-.06-2.29,1.26-3.52.91-.85,1.97-1.34,2.75-1.34.35,0,.64.1.84.31.63.67.06,2.29-1.26,3.52Z"/>
      <path class="cls-3" d="M237.78,125.09c-.5,3.27,1.04,6.22,3.42,6.59.16.03.33.04.49.04,2.21,0,4.28-2.26,4.75-5.3.5-3.27-1.04-6.22-3.42-6.59-2.39-.37-4.74,2-5.24,5.26ZM242.66,125.87c-.2,1.52-.73,2.29-.92,2.26-.06,0-.2-.17-.29-.63-.1-.49-.1-1.12-.02-1.79.19-1.49.72-2.26.91-2.26,0,0,0,0,0,0,.18.02.51.9.31,2.42Z"/>
      <path class="cls-3" d="M200.54,133.11c.31,1.65,1.21,2.95,2.54,3.67.7.38,1.47.57,2.27.57.72,0,1.45-.15,2.19-.45,1.53-.63,2.85-1.86,3.71-3.46s1.17-3.37.86-5c-.31-1.65-1.21-2.95-2.54-3.67-1.32-.72-2.91-.76-4.46-.11-1.53.63-2.85,1.86-3.71,3.46s-1.17,3.37-.86,5ZM204.06,132.06c0-.72.27-1.52.73-2.26.72-1.15,1.8-1.88,2.64-1.88.23,0,.44.05.62.17.4.25.61.75.6,1.42,0,.72-.27,1.52-.73,2.26-.47.74-1.07,1.32-1.72,1.64-.6.3-1.15.32-1.54.07-.4-.25-.61-.75-.6-1.42Z"/>
      <path class="cls-3" d="M222.79,138.58c.39.11.79.17,1.19.17,2.53,0,5.04-2.17,5.95-5.35,1.06-3.68-.43-7.36-3.31-8.18-1.41-.4-2.93-.08-4.29.92-1.33.98-2.35,2.5-2.86,4.27-.51,1.77-.45,3.6.16,5.13.62,1.56,1.74,2.64,3.15,3.05ZM226.28,132.47c-.28.82-.73,1.53-1.25,1.99-.48.42-.97.58-1.37.45-.4-.14-.68-.56-.81-1.19-.13-.69-.05-1.52.24-2.34.28-.82.73-1.53,1.25-1.99.37-.33.74-.49,1.08-.49.1,0,.2.02.29.05.4.14.68.56.81,1.19.13.69.05,1.52-.24,2.34Z"/>
      <path class="cls-3" d="M119.22,136.12c.73,1.38,2.35,2.1,4.29,2.1,1.42,0,3.01-.39,4.53-1.19,3.6-1.9,5.5-5.39,4.23-7.79-1.27-2.4-5.22-2.81-8.82-.91-3.6,1.9-5.5,5.39-4.23,7.79ZM122.94,133.3c.52-.56,1.31-1.12,2.22-1.59,1.28-.67,2.38-.93,3.06-.93.39,0,.65.09.73.24.22.42-.72,1.65-2.75,2.7-.91.47-1.83.79-2.58.89-.76.1-1.12-.04-1.21-.2-.09-.17,0-.54.53-1.1Z"/>
      <path class="cls-3" d="M106.02,135.89h0c1.82-1.38,3.8-3.28,2.86-5.79-.6-1.61-2.69-3.04-6.61-1.77-.6.19-2.7.93-4.47,2.31-1.71,1.33-2.52,2.82-2.34,4.31.2,1.57,1.86,2.75,3.35,2.99.35.06.71.09,1.08.09,1.1,0,2.27-.25,3.49-.76.86-.36,1.94-.84,2.64-1.38ZM105.27,131.67c0,.25-.91,1.11-2.69,1.93-1.81.84-3.06.96-3.22.81-.02-.23.89-1.11,2.69-1.94,1.37-.63,2.42-.86,2.92-.86.15,0,.26.02.3.06Z"/>
      <path class="cls-3" d="M181.05,131.41c-1.03-1.12-2.55-1.65-4.28-1.51-1.71.14-3.43.93-4.84,2.23-1.41,1.29-2.35,2.94-2.64,4.63-.3,1.72.1,3.28,1.13,4.4.91,1,2.22,1.53,3.73,1.53.18,0,.37,0,.55-.02,1.71-.14,3.43-.93,4.84-2.23,1.41-1.29,2.35-2.94,2.64-4.63.3-1.72-.1-3.28-1.13-4.4ZM173.1,137.02c.24-.72.76-1.47,1.47-2.11.7-.64,1.5-1.08,2.25-1.25.21-.05.41-.07.59-.07.41,0,.74.12.95.36.31.34.35.9.13,1.56-.24.72-.76,1.47-1.47,2.11-1.39,1.26-3.13,1.7-3.79.96-.31-.34-.35-.9-.13-1.56Z"/>
      <path class="cls-3" d="M142.46,133.37c-1.7.98-3.03,2.39-3.74,3.96-.72,1.6-.71,3.18.02,4.45.73,1.27,2.1,2.06,3.84,2.24.24.02.48.04.73.04,1.51,0,3.1-.45,4.56-1.29,3.54-2.05,5.21-5.82,3.72-8.4-1.49-2.59-5.59-3.03-9.14-.98ZM146.07,139.5c-1.88,1.11-3.57,1.12-3.98.43-.2-.34-.1-.88.29-1.47.43-.66,1.14-1.3,2.01-1.81,1.06-.62,2.05-.9,2.8-.9.58,0,1,.17,1.18.47.41.69-.42,2.17-2.3,3.28Z"/>
      <path class="cls-3" d="M235.37,149.33c.27.07.54.1.82.1.95,0,1.92-.4,2.8-1.15,1.11-.96,1.94-2.38,2.35-4.02.86-3.41-.43-6.68-2.86-7.29h0c-2.43-.61-5.11,1.66-5.97,5.07-.41,1.63-.35,3.29.18,4.65.54,1.4,1.49,2.34,2.69,2.64ZM236.63,141.53l.03-.06c.35-.61.43-.73.94-.95l-.1-.25s0,0,0,0l.12.25c.08-.01.18.09.2.23.22,1.49-.27,3.21-1.47,5.09-.02.04-.07.05-.1.02-.04-.03-.08-.08-.1-.16-.48-1.44-.32-2.8.48-4.17Z"/>
      <path class="cls-3" d="M83.53,147.88s.03,0,.05,0c2.7-.02,5.11-.84,7.16-2.42.63-.48,1.61-1.52,1.77-2.39.24-1.37-.06-2.53-.87-3.35-1.01-1.03-2.75-1.46-4.64-1.16-2.05.33-7.51,1.92-8.05,5.25-.15.92.08,1.77.67,2.46,1.02,1.19,2.73,1.61,3.92,1.61ZM82.88,144.29c.06-.25,1.02-.99,2.86-1.64,1.83-.65,3.05-.68,3.25-.51-.06.25-1.02.99-2.86,1.64-1.84.65-3.05.68-3.25.51Z"/>
      <path class="cls-3" d="M104.09,148.13c.96,1.12,2.52,1.81,4.28,1.89h0c.1,0,.19,0,.29,0,.78,0,1.6-.13,2.45-.4,1.8-.56,3.41-1.52,4.79-2.86.72-.7,1.55-1.93,1.66-2.82.19-1.54-.29-2.8-1.43-3.73-1.45-1.19-4.16-1.06-6.06-.43-2.06.68-3.83,1.74-5.29,3.15-1.35,1.31-2.14,3.49-.68,5.2ZM108.06,145.07c.55-.49,1.36-.98,2.28-1.38s1.83-.66,2.56-.72c.13-.01.24-.02.35-.02.46,0,.72.1.77.23.16.37-.88,1.47-2.88,2.34-.92.4-1.83.66-2.56.72-.68.06-1.05-.06-1.12-.21-.07-.15.1-.5.61-.96Z"/>
      <path class="cls-3" d="M165.55,147.15c-.81-1.31-2.22-2.14-3.96-2.34-1.72-.19-3.57.26-5.2,1.26-3.39,2.1-4.8,5.99-3.14,8.67.81,1.31,2.22,2.14,3.96,2.34.26.03.53.04.79.04,1.48,0,3.02-.45,4.41-1.31,3.39-2.1,4.8-5.99,3.14-8.67ZM160.4,152.53c-.81.51-1.69.81-2.46.84-.73.03-1.26-.18-1.52-.59-.26-.41-.22-.99.12-1.63.36-.69,1-1.35,1.81-1.86.81-.51,1.69-.81,2.46-.84.04,0,.08,0,.12,0,.66,0,1.16.21,1.4.6.26.41.22.99-.12,1.63-.36.69-1,1.35-1.81,1.86Z"/>
      <path class="cls-3" d="M184.11,147.45c-2.65,2.92-2.9,7.01-.57,9.13.93.84,2.12,1.24,3.39,1.24,1.93,0,4.04-.94,5.64-2.7,2.65-2.92,2.9-7.01.57-9.13-2.33-2.12-6.39-1.46-9.03,1.45ZM189.72,152.62c-.66.68-1.43,1.18-2.17,1.39-.69.19-1.26.12-1.6-.21-.74-.72-.27-2.46,1.03-3.81.66-.68,1.43-1.18,2.17-1.39.25-.07.48-.11.7-.11.37,0,.69.11.91.32.74.72.27,2.46-1.03,3.81Z"/>
      <path class="cls-3" d="M69.8,145.3c-1.47-.47-3.3-.5-5.14-.11-3.85.83-6.59,3.36-6.1,5.63.38,1.77,2.62,2.87,5.42,2.87.78,0,1.61-.09,2.46-.27,3.85-.83,6.59-3.36,6.1-5.63-.24-1.13-1.22-2.02-2.74-2.5ZM68.65,148.64c-.15.24-1.2.81-2.98,1.21-1.79.4-2.97.34-3.22.19.15-.24,1.2-.81,2.98-1.21,1.79-.4,2.97-.34,3.22-.19Z"/>
      <path class="cls-3" d="M134.31,150.24c-.49-1.38-1.71-2.4-3.43-2.87-1.69-.46-3.67-.35-5.58.33-1.91.68-3.52,1.83-4.55,3.26-1.04,1.45-1.35,3.01-.86,4.39.49,1.38,1.71,2.4,3.43,2.87.68.19,1.41.28,2.16.28,1.12,0,2.28-.2,3.43-.61,1.91-.68,3.52-1.83,4.55-3.26,1.04-1.45,1.35-3.01.86-4.39ZM123.41,154.06c-.32-.92,1.39-2.23,3.12-2.83.83-.29,1.66-.44,2.38-.44.16,0,.31,0,.45.02.74.07,1.23.33,1.36.7.13.37-.1.88-.63,1.4-.59.57-1.48,1.08-2.49,1.43-1.01.35-2.02.5-2.84.42-.74-.07-1.23-.33-1.36-.7Z"/>
      <path class="cls-3" d="M89.5,149.66c-1.64.43-6.94,2.12-6.17,6.07.36,1.84,2.27,2.81,3.8,3.08.64.11,1.27.17,1.91.17.93,0,1.86-.12,2.78-.36h0c1.56-.4,2.97-1.12,4.2-2.12,1.21-.98,2.41-2.76,1.82-4.54-1.25-3.83-6.7-2.74-8.35-2.31ZM94.28,152.96c-.79,1.2-2.06,1.71-3.2,2.05-1.14.34-2.48.6-3.8,0,.13-.28.34-.48.65-.63.8-.39,1.7-.74,2.67-1.03.97-.29,1.91-.48,2.79-.59.34-.04.63.02.89.2Z"/>
      <path class="cls-3" d="M114.84,163.24c-.15-1.49-1.06-2.81-2.58-3.72-1.49-.89-3.38-1.28-5.34-1.08-1.96.19-3.74.94-5.03,2.1-1.31,1.18-1.95,2.66-1.8,4.15.27,2.8,3.3,4.85,6.95,4.85.32,0,.64-.02.97-.05,4.07-.4,7.13-3.2,6.83-6.25ZM107.72,165.79c-2.03.23-3.83-.38-3.94-1.34-.11-.95,1.52-1.95,3.54-2.18.29-.03.58-.05.85-.05.71,0,1.38.1,1.92.31.69.26,1.11.65,1.16,1.08.11.95-1.52,1.95-3.54,2.18Z"/>
      <path class="cls-3" d="M144.79,160.36c-1.78-.44-3.8-.24-5.69.57-1.89.81-3.43,2.13-4.34,3.73-.92,1.62-1.08,3.32-.45,4.79.63,1.47,1.97,2.53,3.78,2.98.61.15,1.26.23,1.92.23,1.24,0,2.54-.27,3.78-.8,1.89-.81,3.43-2.13,4.34-3.73.92-1.62,1.08-3.32.45-4.79-.63-1.47-1.97-2.53-3.78-2.98ZM144.67,166.64c-.54.69-1.39,1.3-2.4,1.72-2,.83-4.05.65-4.5-.41-.44-1.06.87-2.66,2.86-3.49.84-.35,1.69-.52,2.43-.52,1.01,0,1.81.32,2.07.93.21.49.04,1.12-.46,1.77Z"/>
      <path class="cls-3" d="M168.31,163.51c-3.17,2.44-4.24,6.4-2.37,8.83.91,1.18,2.35,1.83,4.08,1.83.01,0,.03,0,.04,0,1.71-.01,3.5-.66,5.03-1.83,1.53-1.17,2.62-2.73,3.07-4.38.46-1.68.21-3.26-.7-4.45-1.87-2.43-5.97-2.43-9.14,0ZM174.33,167.32c-.3.7-.88,1.42-1.64,2.02-.75.6-1.58,1.01-2.33,1.16-.69.13-1.22.02-1.49-.32-.59-.73.17-2.36,1.65-3.55.97-.78,2.06-1.21,2.86-1.21.42,0,.76.12.96.37.27.34.26.88-.01,1.52Z"/>
      <path class="cls-3" d="M90.57,167.64c-1.38-1.12-3.25-1.8-5.27-1.9-2.02-.1-3.95.38-5.44,1.36-1.51,1-2.39,2.39-2.47,3.92-.16,3.12,3.13,5.84,7.33,6.05.18,0,.35.01.52.01,3.97,0,7.23-2.3,7.38-5.29.08-1.53-.65-3-2.06-4.15ZM82.23,169.99c.67-.28,1.52-.43,2.43-.43.16,0,.33,0,.5.01,1.1.06,2.12.33,2.87.75.68.38,1.05.85,1.03,1.28-.03.44-.45.86-1.17,1.16-.79.33-1.83.48-2.93.41-2.39-.14-3.94-1.16-3.89-2.03.03-.44.45-.86,1.17-1.16Z"/>
      <path class="cls-3" d="M126.07,174.48c-1.75-.71-3.86-.81-5.94-.27-4.31,1.11-7.15,4.63-6.32,7.85.4,1.58,1.61,2.84,3.39,3.56,1.01.41,2.13.61,3.3.61.86,0,1.75-.11,2.64-.34,4.31-1.11,7.15-4.63,6.32-7.85-.4-1.58-1.61-2.84-3.39-3.56ZM122.16,182.16c-1.15.28-2.28.31-3.19.08-.85-.22-1.39-.63-1.53-1.16-.28-1.15,1.4-2.59,3.67-3.15.64-.16,1.27-.24,1.86-.24.48,0,.92.05,1.33.15.85.22,1.39.63,1.53,1.16.28,1.15-1.4,2.59-3.67,3.15Z"/>
    </g>
  </g>
</svg>