<?xml version="1.0" encoding="UTF-8"?>
<svg id="Layer_2" data-name="Layer 2" xmlns="http://www.w3.org/2000/svg" viewBox="0 0 295.22 295.22">
  <defs>
    <style>
      .cls-1 {
        fill: #fff;
      }

      .cls-2 {
        opacity: .7;
      }

      .cls-3 {
        fill: #060807;
      }
    </style>
  </defs>
  <g id="Layer_1-2" data-name="Layer 1">
    <rect class="cls-1" width="295.22" height="295.22"/>
    <g class="cls-2">
      <path class="cls-3" d="M274.76,157.06c-.55-2.58-1.45-5.5-3.91-7.58-1.4-1.19-2.94-2.1-4.58-2.72-2.07-.78-4.79-1.55-7.26-2.07-1.95-.41-4.3-.86-7-1.33-2.51-.44-4.36-.76-5.49-.95-6.53-1.09-12.38-2.18-17.38-3.25-8.04-1.71-16.1-4.05-23.95-6.96-4.72-1.75-9.04-3.67-12.84-5.72-3.94-2.12-7.95-4.64-11.92-7.48-6.1-4.37-11.56-9.31-16.22-14.66-.2-.23-.44-.58-.7-1.04-.03-.05-.05-.11-.06-.17-.06-.57-.19-1.23-.38-1.97-.16-.64-.59-1.36-1.31-2.21-2.2-2.58-6.13-7.31-11.7-14.04-1.24-1.5-2.5-1.12-3.13-.76-.12.06-.23.14-.32.23-.38.35-.72.78-1.08,1.22-.31.39-.63.79-.99,1.15-2.43,2.43-5.48,5.3-9.05,8.53-5.91,5.35-10.85,9.6-14.67,12.64-2.01,1.6-4.79,3.65-8.27,6.11-3.97,2.8-8.19,5.3-12.54,7.43-2.64,1.29-5.42,2.33-8.25,3.09-2.02.54-3.92.5-5.65-.11-2.17-.77-4.89-2.06-8.07-3.83-1.97-1.09-3.41-1.93-4.3-2.49-4.08-2.57-8.32-5.09-12.61-7.49-2.37-1.33-4.72-2.47-6.96-3.39-1.26-.52-2.37-.22-3.11.86-.1.14-.17.3-.21.46-.05.19-.08.38-.09.57-4.25-2.54-8.91-4.33-13.86-5.31-.89-.18-1.57-.18-2.06,0-1.42.5-1.95,1.62-1.44,3.08.77,2.22,1.34,3.86,1.72,4.96-6.09-1.68-9.83-2.73-11.13-3.13-.84-.26-1.66-.2-2.45.17-.99.46-1.51,1.27-1.42,2.2.1,1.08,1.03,2.1,2.21,2.42,3.49.94,8.32,2.2,14.36,3.76.03,0,.05.03.05.06.28,1.98.28,4.03.01,6.08-.16,1.2-.31,2.15-.45,2.82-.52,2.46-.87,4.14-1.06,5.01-.37,1.71-.64,3.25-.81,4.59-.47,3.74-.52,4.44-.53,4.64-.04,3.25-.05,5.09-.01,5.61.35,5.22,1.28,9.4,2.92,13.15.3.69.63,1.33.98,1.9-.67.63-1.28,1.3-1.7,2.28-.65,1.53-.86,3.12-.62,4.71,0,.04-.02.07-.05.08-1.56.56-2.92,1.54-4.04,2.92-1.53,1.88-2.16,4.04-1.88,6.41-1.49.35-2.74,1.12-3.73,2.28-2.08,2.44-1.16,6.16.26,8.6,1.62,2.79,3.53,5.13,5.68,6.95,6,5.07,13.04,8.79,20.91,11.04,1.78.51,2.79-.56,3.47-1.55.34-.49.65-.95.95-1.4.43,1.08.71,1.79.85,2.14.36.92.95,1.58,1.75,1.95.12.06.24.1.37.12.24.04.48.08.71.12.87.15,1.7.28,2.5.34,4.29.31,8.98.54,13.94.67,5.22.14,8.01.19,8.51.17,1.44-.07,2.23-.32,3.06-1.66.48-.78.9-1.49,1.23-2.11.21.33.37.62.47.86.34.76.8,1.44,1.39,2.03.16.16.36.28.57.33,1.25.33,1.38.32,1.5.33,1.83-.02,3.63-.09,5.35-.21.72-.05,1.44-.07,2.14-.08,1-.02,2.03-.05,3.02-.16.65-.08,1.34-.09,2.01-.11.55-.01,1.07-.03,1.53-.07.82-.08,1.7-.13,2.62-.16,3.38-.1,7.04-.26,10.86-.48,1.18-.07,2.09-.66,2.62-1.7.07-.15.32-.59,1.03-1.82l1.11,1.92c.17.29.42.52.73.66.66.31,1.41.47,2.22.47,4.35.05,7.35.11,8.91.2,4.98.28,7.93.46,8.76.53,4,.35,6.64.6,7.83.73.17.02.33,0,.49-.04.72-.21,1.2-.49,1.47-.87.49-.68.91-1.36,1.26-2.03.13.22.27.5.41.8.56,1.16,1.33,2.75,3.14,2.92,4.19.38,11.58.94,21.97,1.65.96.07,3.96.2,8.93.39.13,0,.27.01.4.02,1.24.07,2.79.15,3.74-1.28.4-.6.77-1.18,1.12-1.71.4.65.78,1.24,1.15,1.76.55.78,1.32,1.21,2.25,1.25.99.04,2.07.06,3.24.06,3.38,0,7.5-.16,12.29-.49,1.58-.11,3.65-.33,6.16-.65,3.02-.39,5.1-.74,6.36-1.06,1.06-.27,1.81-.95,2.24-2.02.17-.42.33-.86.5-1.32,1.06.96,2.01,1.69,2.91,1.5.7-.15,1.16-.27,1.45-.38,3.05-1.23,5.68-2.39,7.8-3.47,3.95-1.99,7.89-4.54,11.73-7.56.39-.31.71-.63,1-.92.15-.15.29-.3.44-.44.11-.1.2-.22.28-.34l.96-1.43c.75-.39,1.4-.82,1.95-1.28,2.16-1.8,3.92-3.4,5.5-5.35,3.58-4.44,6.17-9.44,7.69-14.88.22-.8.49-1.82.79-3.04.58-2.35.88-4.81.9-7.32,0-1.42-.11-2.72-.36-3.87ZM64.86,118.5c-1.66-1.04-3.34-2.09-5.04-3.15-.81-.51-1.96-1.3-2.85-2.21,1.23.61,2.45,1.26,3.66,1.95,3.34,1.91,7.29,4.29,11.73,7.07.3.19,1,.59,2.13,1.23-3.32-1.32-6.54-2.95-9.63-4.88ZM94.64,204.63c-.21,0-.48-.25-.67-.6-.84-1.51-1.51-2.65-1.98-3.39-.45-.71-.99-1.13-1.61-1.23-.6-.1-1.22.1-1.84.6-.13.1-.23.22-.32.37-1.31,2.24-2.2,3.69-2.64,4.31-.1.13-.21.24-.71.24-3.31.02-5.82-.01-7.46-.1-2.33-.13-3.98-.19-4.94-.19-.93,0-1.8-.04-2.58-.14-.59-.08-1.23-.09-1.9-.11-.55-.01-1.12-.03-1.69-.08-2.69-.23-4.27-.39-4.7-.45-.09-.01-.24-.04-.37-.37-.8-2.12-1.46-3.84-1.96-5.1-.07-.19-.2-.37-.35-.51-.66-.58-1.32-.82-1.95-.71-.95.17-1.56,1.1-2.02,1.99-.32.6-.98,1.62-1.95,3.02-.2-.02-.52-.08-1.01-.26-2.74-.99-5.27-2.04-7.52-3.12-4.53-2.16-8.57-5.02-12.02-8.52-1.48-1.5-4.34-5.28-3.76-7.4.19-.7.78-1.17,1.8-1.44.29-.08.55-.09.76-.03,3.35,3.15,8,5.93,13.11,7.84,4.68,1.75,9.54,3.05,14.45,3.87,4.82.8,10.15,1.37,15.84,1.68,1.17.06,2.31.08,3.41.1.83.01,1.69.03,2.54.06,1.07.04,1.88.06,2.42.05,1.03-.02,2.06-.03,3.08-.04,4.26-.05,8.28-.11,12.7-.38,2.25-.14,3.81-.21,5.61-.3.91-.04,1.89-.09,3.05-.15,4.88-.25,10.26-.33,16.01-.26,7.22.1,15.55.74,24.77,1.91.45.06,2.53.39,6.18,1,1.73.29,3.82.65,6.19,1.08,5.73,1.04,10.47,1.83,14.07,2.34,5.63.81,11.75,1.44,18.2,1.87,6.69.45,13.35.57,19.79.35,1.11-.04,3.01-.15,5.64-.33,2.12-.15,4.49-.46,6.58-.73l.86-.11c1.64-.21,2.62-.35,2.99-.42.57-.1,1.14-.21,1.7-.32-.76.22-1.36.95-1.84,2.23-.27.72-.5,1.38-.7,1.96-.16.48-.46.72-.99.8-4.74.71-8.37,1.14-10.79,1.3-.6.04-1.17.1-1.68.15-.56.06-1.05.11-1.46.12-2.92.1-6.33.17-10.14.2-.97.01-1.18-.17-1.18-.18-.05-.05-.1-.1-.13-.16-1.46-2.34-1.79-2.83-1.92-3-.99-1.35-1.92-1.48-2.53-1.35-.62.13-1.11.5-1.48,1.1-.72,1.2-1.32,2.21-1.81,3.02-.15.25-.32.43-.52.56-.2.13-1.06.03-1.51-.02-.19-.02-.38-.04-.56-.06-.68-.06-1.39-.08-2.08-.09-.6-.01-1.17-.03-1.65-.07-1.07-.09-1.82-.15-2.3-.17-4.36-.18-8.47-.45-12.22-.79-1.32-.12-2.63-.23-3.9-.33-2.07-.16-4.22-.33-6.47-.59-.35-.04-.48-.19-.55-.34-.8-1.53-1.64-3.03-2.51-4.46-.13-.21-.31-.39-.52-.5-.43-.24-.85-.36-1.24-.36-.17,0-.34.02-.51.07-.55.16-1,.56-1.35,1.21-.71,1.31-1.3,2.36-1.74,3.12-.08.14-.17.26-.25.35-.39-.04-1.66-.15-6.06-.52-6.31-.53-12.32-.77-17.87-.74-.8.01-1.06-.32-1.19-.61-.42-.91-.97-1.98-1.66-3.19-.34-.6-1.25-2.2-2.94-1.29-.35.19-.65.54-.92,1.08-.24.48-1.06,1.96-2.44,4.39-.02.03-.04.04-.08.05-2.51.1-6.28.29-11.2.55-3.33.18-4,.21-4.08.21-.08,0-.28,0-3.03.19-.43.03-.98.04-1.55.06-.75.02-1.59.04-2.42.11-1.67.13-2.98.17-3.88.13ZM251.86,193.58c-.68.55-1.37,1.07-2.08,1.56-4.55,3.08-9.5,5.7-14.72,7.79q-.38.15-.64-.1c-.4-.38-.98-.92-1.72-1.59-.59-.53-1.17-.8-1.73-.8-.06,0-.13,0-.19.01,4.82-.95,9.07-2.07,12.67-3.34,2.84-.99,5.65-2.18,8.41-3.53ZM247.37,191.19c-3.28,1.39-6.58,2.54-9.81,3.41-4.66,1.26-9.75,2.22-15.13,2.86-3.78.45-7.53.75-11.12.9-1.15.05-4.09.05-8.74.01-1.87-.02-6.4-.28-13.48-.77-.51-.04-2.61-.25-6.25-.65-1.75-.19-3.49-.41-5.17-.66-3.88-.56-4.91-.71-5.13-.75h-.1c-.18-.03-.85-.13-3.05-.52-.65-.12-1.37-.22-2.06-.32-.77-.12-1.5-.22-2.09-.34-5.62-1.07-11.08-1.98-16.21-2.7-.4-.06-2.31-.29-5.84-.71-2.13-.25-4.11-.44-5.88-.56-6.36-.44-10.74-.66-13.03-.67-1.99,0-4.63,0-7.86,0-2.11,0-4.77.08-7.89.23-2.82.14-5.64.27-8.47.39-3.71.17-7.47.31-11.17.43-5.58.18-11.35.03-17.14-.44-4.13-.33-7.76-.74-10.79-1.2-3.54-.54-7.09-1.31-10.56-2.29-3.29-.93-6.53-2.21-9.64-3.8-1.94-1-3.83-2.25-5.61-3.74-.56-.46-.95-.97-1.16-1.52-1.25-3.19,1.44-4.93,2.99-5.65.13.26.29.51.48.76,2.44,3.26,6.3,5,9.4,6.16,2.47.92,5.33,1.73,8.5,2.39,5.35,1.12,10.56,1.86,15.47,2.2,1.36.09,2.25.15,2.62.19,1.35.12,2.22.18,2.68.18,1.46.02,2.76.07,4.03.11,1.85.06,3.59.13,5.78.12,3.7,0,6.22-.02,7.51-.04,3.54-.05,6.14-.02,9.16,0,1.28.01,2.63.03,4.16.04,2.87.02,6.21.1,9.93.24,4.46.17,7.79.34,9.91.51,1.47.12,2.93.23,4.39.34,1.56.12,2.95.26,4.42.41,1.12.12,2.27.23,3.5.34,1.54.13,2.72.25,3.53.34,8.49,1,14.41,1.73,17.59,2.19,9.57,1.38,16.96,2.36,21.96,2.94,4.68.54,9.08.91,13.07,1.11,8.08.41,15.1.41,22.1,0,.58-.03,1.22-.09,1.91-.17.41-.05.82-.07,1.24-.08.39-.02.79-.03,1.23-.08,1.1-.1,2.84-.29,5.18-.57,2.51-.3,6.02-.96,10.44-1.97,8.83-2.02,17.05-5.54,23.76-10.17.31-.21.8-.59,1.49-1.15.52-.41.81-.99.87-1.72.02-.25-.05-.5-.2-.71-.85-1.2-2.1-1.51-3.18-.79-.5.33-1,.69-1.53,1.06-.9.63-1.83,1.29-2.75,1.85-2.2,1.33-4.85,2.63-7.88,3.87-5.34,2.19-11.09,3.81-17.1,4.82-3.75.63-7.34,1.1-10.67,1.39-4.35.38-9,.56-13.82.53-6.62-.04-12.92-.36-18.71-.94-2.91-.29-4.77-.48-5.57-.56-1.34-.13-3.2-.36-5.52-.68-13.27-1.84-21.13-2.92-23.34-3.21-.78-.1-3.21-.37-7.43-.83-1.19-.13-2.89-.32-5.04-.57-1.98-.23-3.7-.39-5.1-.46-.02,0-.12-.01-.35-.07-.24-.06-.49-.09-.74-.09-.01,0-.03,0-.04,0-.56,0-1.1-.07-1.62-.14-.61-.08-1.24-.17-1.91-.14-.09,0-.46,0-2.11-.18-.97-.1-4-.26-9.28-.47-.18,0-.38-.03-.59-.06-.25-.03-.51-.07-.76-.07-1.72,0-3.6-.05-5.6-.12-4.59-.17-9.09-.25-13.38-.22-7.52.05-11.78.07-12.64.05-7.52-.1-13.83-.43-18.75-.97-.3-.03-.52-.06-.66-.07-5.21-.46-10.57-1.46-15.93-2.96-2.8-.79-5.41-1.9-7.75-3.32-.76-.46-1.56-1.19-2.39-2.18-1.06-1.26-1.51-2.66-1.4-4.28.05-.69.27-1.21.7-1.61.11.06.23.11.36.14.76.63,1.63,1.11,2.61,1.44,1.68.57,2.96,1.02,3.81,1.34,1.73.65,3.18,1.03,4.86,1.46.34.09.69.18,1.06.28.68.18,1.51.35,2.45.51,2.69.45,4.99.76,6.84.91,1.05.09,1.84.15,2.34.2,1.24.1,2.03.16,2.4.16,1.09.01,2.09.07,3.15.12,1.02.06,2.08.11,3.23.13,1.61.02,2.72.06,3.29.12,1.12.11,2.26.12,3.36.13.87,0,1.77.01,2.63.08,1.35.09,2.82.16,4.37.2,1.18.03,2.62.11,4.29.24,8.18.63,14.75,1.23,19.53,1.78.26.03,3.15.38,9.11,1.1,5.07.61,8.14.99,9.1,1.11,4.4.58,8.83,1.14,13.14,1.65,13.42,1.6,19.79,2.36,20.05,2.39,12.47,1.36,24.73,2.36,36.42,3,2.96.16,7.53.21,13.6.15,6.86-.07,13.47-.54,19.66-1.4,4.69-.65,9.47-1.7,14.22-3.11,4.22-1.25,8.24-2.91,11.94-4.91,2.7-1.46,5.13-3.23,7.2-5.26,1.38-1.35,3.18-3.7,3.94-5.57.74-1.81,1.14-3.51,1.2-5.04.03-.7.05-1.15.06-1.42.14.39.24.8.31,1.24.31,1.91.38,3.61.23,5.04-.73,6.76-2.98,12.95-6.68,18.4-1.47,2.16-3.39,4.24-5.73,6.19-.08-.17-.2-.32-.34-.46-.42-.4-1.06-.63-1.65-.59-.44.03-1,.29-1.81.85-2.08,1.42-4.57,2.75-7.41,3.96ZM37.97,141.81c.02-.48.15-1.95.38-4.36.28-2.88.9-5.54,1.63-8.61.51-2.16.82-4.03.93-5.54.13-1.69.14-3.35.04-4.94l.64.22c-.32,4.89-.47,7.5-.48,7.96-.03,1.54.45,2.5,1.4,2.86.64.24,1.22.24,1.7,0,.48-.23.83-.67,1.04-1.32.02-.07.04-.15.05-.23l.25-7.49c2.04.09,3.36-1.03,3.71-3.19.03-.17.03-.34,0-.51-.19-1.26-.26-1.49-.3-1.61-.89-2.42-3.02-3.44-5.42-2.6-.68.24-1.33.9-1.81,1.44-.02.02-.05.03-.08.02l-1.4-.48c-.09-.03-.16-.1-.19-.18l-1.65-4.71c3.83.95,7.45,2.49,10.78,4.58,1.28.81,2.68,1.76,4.15,2.84,4.04,2.98,8.26,5.68,12.53,8.05.94.52,2.51,1.29,4.67,2.3,5.68,2.63,11.61,3.7,17.62,3.18,4.49-.39,9.36-1.92,14.47-4.54,2.63-1.35,5.11-2.77,7.38-4.21,6.54-4.16,12.98-8.93,19.16-14.17,1.84-1.56,4.36-3.8,7.48-6.64,3.62-3.3,7.5-6.91,11.52-10.72l10.67,12.98.76,2.58c.11.38.29.73.52,1.05,1.01,1.42,2.15,2.78,3.38,4.04,8.6,8.86,18.52,16.15,29.49,21.67,3.7,1.86,7.78,3.59,12.15,5.14,3.52,1.25,7.2,2.43,10.95,3.5-.85-.09-1.67-.08-2.42.04-1.7.28-2.87,1.09-3.3,2.28-.85,2.35,1.57,5.3,5.5,6.72,1.31.47,2.65.72,3.88.72.46,0,.91-.03,1.34-.11,1.7-.28,2.87-1.09,3.3-2.28.43-1.19.04-2.56-1.09-3.86-.87-1-2.11-1.87-3.55-2.51,5.66,1.49,11.97,2.83,20.1,4.27,1.53.27,2.97.53,4.33.77,6.81,1.2,11.72,2.07,16.88,3.28,3,.7,5.17,1.61,6.63,2.78-.96,1.23-1.45,2.69-1.45,4.35,0,.17,0,.34,0,.51,0,.84.02,1.71-.22,2.53-.52,1.78-1.27,3.25-2.23,4.38-1.77,2.09-3.92,3.91-6.39,5.41-3.62,2.21-8.15,4.11-13.1,5.51-3.4.96-6.23,1.65-8.42,2.04-4.08.73-8.25,1.27-12.4,1.62-7.86.65-15.26.78-22,.4-.82-.05-1.93-.08-3.29-.1-.7-.01-1.35-.07-2.04-.12-.78-.06-1.58-.13-2.45-.13-.06,0-.13,0-.19,0-.14,0-.58-.01-1.82-.1-4.87-.33-8.19-.59-9.87-.79-2.77-.31-3-.28-3.14-.26-.13.02-.42-.04-.63-.08-.26-.05-.5-.1-.71-.09-.12,0-.91-.07-4.86-.48-2.2-.23-3.86-.39-4.93-.48-2.9-.25-4.98-.45-6.19-.59-6.94-.83-11.07-1.32-12.28-1.45-3.44-.37-6.35-.74-8.65-1.08-.61-.09-1.59-.21-2.91-.35-.8-.08-1.74-.23-2.81-.43-.23-.05-.46-.05-.65-.05-.11,0-.22,0-.3-.01-7.26-.93-12.04-1.54-14.32-1.83-2.39-.3-4.85-.58-7.29-.83-4.49-.46-6.92-.71-7.29-.75-2.72-.29-5.66-.54-8.71-.76-.16-.01-.32-.04-.5-.07-.24-.04-.48-.08-.72-.08-1.06,0-1.86-.04-2.35-.1-1.1-.13-2.14-.17-3.16-.2-.74-.02-1.51-.05-2.28-.11-.97-.08-1.95-.1-2.9-.11-1.11-.02-2.16-.03-3.18-.15-1.24-.14-2.37-.16-3.58-.18-.94-.01-1.91-.03-2.96-.11-.44-.03-1.81-.1-4.08-.21-5.41-.26-11.13-.6-16.42-1.7-1.39-.29-2.61-.64-3.62-1.04-.15-.06-.29-.12-.41-.18.52-1.6.41-3.25-.34-4.92-.84-1.87-2.78-3.61-5.06-2.99-.8.22-1.45.68-1.92,1.37-.57.83-.76,1.8-.55,2.89-.98-1.47-1.77-3.12-2.36-4.9-.41-1.27-.99-3.14-1.22-4.77-.48-3.45-.67-6.43-.56-8.86ZM219.8,145.93c-.53-.02-1.41-.16-2.54-.57s-1.91-.85-2.33-1.18c.53.02,1.41.16,2.54.57,1.13.4,1.91.85,2.33,1.18Z"/>
      <path class="cls-3" d="M144.99,115.32c1.75,1.3,3.73,1.95,5.52,1.95s3.43-.67,4.42-2c1.96-2.64.69-6.92-2.83-9.53-3.52-2.61-7.98-2.59-9.94.05-1.96,2.64-.69,6.92,2.83,9.53ZM145.5,108.44c.18-.26.56-.4,1.07-.4.1,0,.21,0,.32.02.81.08,1.77.47,2.63,1.05,1.74,1.19,2.54,2.83,2.08,3.5-.21.31-.72.45-1.39.38-.81-.08-1.77-.47-2.63-1.05-1.74-1.19-2.54-2.83-2.08-3.5Z"/>
      <path class="cls-3" d="M135.58,129.86c.11-.04.22-.04.33,0,.72.31,1.51.61,2.33.88,3.15,1.04,6.09,1.97,8.73,2.78.41,2.37,2.43,4.37,4.2,5.46,2.58,1.59,5.09,2.06,7.49,1.42,1.51-.41,2.67-1.26,3.45-2.54l9.78,3.33c-.31,1.58.67,3.33,1.35,4.17,1.31,1.61,3.55,3.53,5.93,4.09,2.51.6,5.85.62,7.67-2.53,2.24.8,4.81,1.67,7.66,2.57.39.12.86.31,1.4.55-.31,2.04.63,3.95,2.79,5.68,2.08,1.67,4.37,2.56,6.8,2.65,3.22.13,5.04-1.51,5.56-3.37l8.78,2.36c-.1,1.25.28,2.41,1.15,3.45,1.43,1.72,3.29,2.99,5.53,3.75,1.91.65,4.7.91,6.78-.33,1.08-.64,1.81-1.62,2.15-2.85,1.07.3,2.34.63,3.78,1.02,2.93.78,6.26,1.66,9.46,2.61,2.08.62,3.27.96,3.65,1.05.25.06.5.09.74.09.79,0,1.52-.3,1.94-.82.28-.34.66-1.09.13-2.22-.26-.54-.74-.95-1.32-1.1l-19.18-5.15s-.02,0-.03-.01c-.32-.2-.63-.41-.92-.62-.41-.29-.83-.58-1.3-.83-1.77-.93-3.66-1.49-5.62-1.66-.73-.07-1.58.05-2.4.16-.52.07-1.02.14-1.41.15-.2.01-.56-.13-.82-.23-.19-.07-.37-.14-.55-.19-3-.77-6.17-1.65-9.44-2.63-.47-.14-1-.27-1.59-.39-.18-.04-.34-.12-.47-.24-1.18-1.09-2.48-2-3.87-2.7-2.21-1.11-4.37-1.42-6.82-.99-.28.05-.58.03-.85-.07l-11.69-4.16c-1.35-2.31-3.74-4.01-6.93-4.92-1.8-.51-3.65-.45-5.52.19l-12.18-4.15c-.78-1.66-2.09-3.03-3.89-4.09-2.24-1.32-5.6-2.19-8.05-1.17-.75.31-1.42.77-2,1.36-.03.04-.09.05-.13.03l-10.11-3.45c.56-1.94.06-4.01-1.4-5.74-1.7-2.01-3.92-3.23-6.61-3.64-1.82-.28-3.62.15-4.95,1.18-1.16.9-1.86,2.16-2.02,3.64-.18,1.65.53,3.47,1.93,5,2.94,3.2,7.1,4.43,10.58,3.15ZM131.66,121.81c1.97,1.06,2.86,2.69,2.42,3.49-.21.39-.74.62-1.45.64-.85.03-1.87-.24-2.8-.75-1.97-1.06-2.86-2.69-2.42-3.49h0c.43-.8,2.28-.96,4.25.1ZM151.22,132.58c.17-.36.72-.57,1.49-.57s1.76.21,2.79.69c2.04.95,3.19,2.47,2.85,3.19-.34.73-2.24.83-4.28-.12-2.04-.95-3.19-2.47-2.85-3.19ZM183.15,145.06c-.27.58-2.01.8-4.12-.18-2.11-.98-3.07-2.45-2.8-3.03.27-.58,2.01-.8,4.12.18.98.45,1.84,1.09,2.36,1.74.41.52.57,1,.44,1.29ZM200.14,150.95c.07-.17.45-.35,1.12-.37.02,0,.05,0,.07,0,.8,0,1.79.23,2.74.64.98.42,1.86,1,2.41,1.59.46.49.59.89.51,1.06-.07.17-.45.35-1.12.37-.81.01-1.83-.22-2.82-.64-2.13-.91-3.1-2.23-2.92-2.66ZM224.23,158.23c.1-.32,1.6-.71,3.96,0,1.05.32,2.01.79,2.64,1.31.56.46.69.8.66.89-.1.32-1.61.71-3.96,0-2.36-.72-3.39-1.88-3.3-2.2Z"/>
      <path class="cls-3" d="M166.64,128.95c1.79,1.47,3.87,2.22,5.7,2.22,1.52,0,2.88-.52,3.75-1.59,1.92-2.35.8-6.44-2.49-9.14-3.29-2.69-7.53-2.98-9.45-.63-1.92,2.35-.8,6.44,2.49,9.14ZM167.35,122.47c.32-.41,1.9-.15,3.53,1.15.78.62,1.42,1.37,1.75,2.05.24.5.31.95.16,1.13-.15.19-.6.22-1.14.1-.74-.17-1.61-.63-2.39-1.25s-1.42-1.37-1.75-2.05c-.24-.5-.31-.95-.16-1.13Z"/>
      <path class="cls-3" d="M56.66,139.68c.38,0,.76-.04,1.14-.13,3.11-.72,4.95-4.25,4.11-7.85-.4-1.73-1.35-3.22-2.68-4.21-1.36-1.01-2.95-1.38-4.48-1.02-1.53.36-2.79,1.38-3.57,2.89-.75,1.47-.95,3.23-.55,4.96.74,3.17,3.3,5.36,6.02,5.36ZM55.77,130.56c.07-.02.15-.02.22-.02.43,0,.8.27.99.44.44.4.78,1.03.93,1.71.28,1.34-.22,2.63-1.09,2.81-.88.18-1.85-.79-2.14-2.13-.28-1.34.22-2.63,1.09-2.81Z"/>
      <path class="cls-3" d="M112.63,144.57c1.59,1.06,3.39,1.63,5.12,1.63.16,0,.32,0,.48-.02,1.94-.12,3.53-.97,4.47-2.38,1.9-2.86.48-7.16-3.17-9.6-3.65-2.44-8.17-2.09-10.08.76-.94,1.41-1.11,3.2-.48,5.04.61,1.77,1.91,3.39,3.65,4.55ZM112.99,137.47c.6-1.01,2.69-.73,4.18.15,1.5.89,2.75,2.58,2.15,3.59-.6,1.01-2.69.73-4.19-.15-1.5-.89-2.75-2.58-2.15-3.59Z"/>
      <path class="cls-3" d="M191.87,142.17c1.41.54,2.8.8,4.06.8,2.31,0,4.16-.88,4.77-2.48.95-2.48-1.44-5.62-5.44-7.16-4-1.54-7.88-.8-8.83,1.68-.48,1.25-.13,2.69.98,4.08,1.03,1.28,2.61,2.37,4.46,3.08ZM190.72,136.6c.48-.05,1.57.09,3.01.68s2.31,1.26,2.62,1.63c-.48.05-1.57-.09-3.01-.68-1.44-.59-2.31-1.26-2.62-1.63Z"/>
      <path class="cls-3" d="M81.26,150.02c1.42.89,3.01,1.35,4.56,1.35.29,0,.58-.02.87-.05,1.86-.22,3.38-1.13,4.27-2.55.89-1.43,1.03-3.19.41-4.95-.61-1.71-1.87-3.24-3.57-4.29-3.54-2.2-7.89-1.65-9.69,1.25h0c-1.8,2.89-.38,7.04,3.16,9.25ZM81.64,143.01c.3-.51.98-.61,1.36-.63.04,0,.08,0,.11,0,.73,0,1.57.25,2.33.7.8.47,1.45,1.12,1.79,1.8.17.34.41.98.11,1.5-.51.86-2.28.83-3.8-.07-1.52-.89-2.41-2.43-1.9-3.29Z"/>
      <path class="cls-3" d="M43.21,150.83h.01c2.05-.01,3.65-2.34,3.64-5.3,0-1.36-.36-2.64-1-3.62-.7-1.06-1.65-1.64-2.67-1.64h-.01c-2.05.01-3.65,2.34-3.64,5.3.02,2.95,1.63,5.26,3.68,5.26Z"/>
      <path class="cls-3" d="M145.43,145.12c-2.07-.92-4.29-1.19-6.25-.75-2.04.45-3.56,1.6-4.29,3.24-.73,1.63-.56,3.54.46,5.35.99,1.75,2.67,3.22,4.74,4.14,1.42.63,2.92.96,4.35.96.65,0,1.29-.07,1.91-.2,2.04-.45,3.56-1.6,4.29-3.24.73-1.63.56-3.54-.46-5.35-.99-1.75-2.67-3.22-4.74-4.14ZM146.73,152.79c-.2.48-.79.81-1.61.91-.96.12-2.11-.08-3.22-.55-1.11-.48-2.04-1.17-2.62-1.95-.49-.66-.66-1.32-.45-1.79.2-.48.79-.81,1.61-.91.18-.02.37-.03.57-.03.83,0,1.75.2,2.65.59,1.11.48,2.04,1.17,2.62,1.95.49.66.66,1.32.45,1.79Z"/>
      <path class="cls-3" d="M235.95,152.22c1.08,1.02,2.64,1.81,4.39,2.23.89.21,1.76.31,2.58.31,2.67,0,4.77-1.08,5.2-2.87.28-1.18-.21-2.45-1.4-3.56-1.08-1.02-2.64-1.81-4.39-2.23-3.8-.91-7.22.22-7.78,2.56-.28,1.18.21,2.45,1.4,3.56ZM239.88,149.91c.41.05.91.15,1.48.31.58.16,1.05.34,1.43.51-.41-.05-.91-.15-1.48-.31-.58-.16-1.05-.34-1.43-.51Z"/>
      <path class="cls-3" d="M57.84,153.51c-2.24,2.17-1.94,6.13.67,8.83,1.49,1.55,3.43,2.35,5.23,2.35,1.35,0,2.62-.45,3.58-1.38,2.24-2.17,1.94-6.13-.67-8.83s-6.56-3.14-8.8-.98ZM60.73,156.54c.17-.17.44-.27.77-.27.62,0,1.44.33,2.17,1.05,1.1,1.1,1.31,2.43.81,2.93-.33.33-.87.29-1.17.23-.6-.12-1.24-.49-1.77-1.01-.53-.52-.9-1.17-1.03-1.77-.06-.29-.11-.83.22-1.17Z"/>
      <path class="cls-3" d="M172.86,154.18c-4.35-1.97-9.03-1.05-10.44,2.06l.62.28h0l-.62-.28c-.7,1.55-.51,3.37.56,5.14,1.01,1.69,2.71,3.13,4.77,4.07,1.55.7,3.14,1.04,4.61,1.04,2.66,0,4.92-1.09,5.83-3.09,1.41-3.11-.98-7.24-5.33-9.21ZM174.38,161.48c-.35.86-2.49,1.11-4.84.15-1.15-.47-2.16-1.16-2.78-1.89-.52-.62-.73-1.2-.56-1.6h0c.16-.4.72-.68,1.52-.75.14-.01.28-.02.43-.02.88,0,1.9.22,2.88.62,2.34.96,3.7,2.63,3.35,3.49Z"/>
      <path class="cls-3" d="M199.79,161.22c-2.16-.65-4.37-.67-6.22-.08-1.95.63-3.29,1.86-3.77,3.48-.48,1.61-.05,3.38,1.23,4.98,1.22,1.52,3.08,2.72,5.24,3.36,1.12.34,2.26.51,3.36.51,1.01,0,1.98-.14,2.87-.43,1.95-.63,3.29-1.86,3.77-3.48s.05-3.38-1.23-4.98c-1.22-1.52-3.08-2.72-5.24-3.36ZM193.89,165.77c.12-.39.63-.7,1.4-.84.29-.05.6-.08.94-.08.73,0,1.54.13,2.34.37,2.36.72,3.83,2.21,3.58,3.06-.26.85-2.31,1.27-4.67.55-2.36-.72-3.83-2.21-3.58-3.06Z"/>
    </g>
  </g>
</svg>