<svg width="24" height="24" viewBox="0 0 20.99 22.07" fill="none" xmlns="http://www.w3.org/2000/svg">
  <path d="M3.77,6.82c.41,0,.75-.34.75-.75s-.34-.75-.75-.75-.75.34-.75.75.34.75.75.75Z" fill="currentColor"/>
  <path d="M7.52,4.32c.83,0,1.5-.67,1.5-1.5s-.67-1.5-1.5-1.5-1.5.67-1.5,1.5.67,1.5,1.5,1.5Z" fill="currentColor"/>
  <path d="M11.02,5.32c.28,0,.5-.22.5-.5s-.22-.5-.5-.5-.5.22-.5.5.22.5.5.5Z" fill="currentColor"/>
  <path d="M19.28,4.17c.83,0,1.5-.67,1.5-1.5s-.67-1.5-1.5-1.5-1.5.67-1.5,1.5.67,1.5,1.5,1.5Z" fill="currentColor"/>
  <path d="M18.02,10.32c.55,0,1-.45,1-1s-.45-1-1-1-1,.45-1,1,.45,1,1,1Z" fill="currentColor"/>
  <path d="M19.52,13.32c.62,0,1.12-.5,1.12-1.12s-.5-1.12-1.12-1.12-1.12.5-1.12,1.12.5,1.12,1.12,1.12Z" fill="currentColor"/>
  <path d="M19.28,18.32c.55,0,1-.45,1-1s-.45-1-1-1-1,.45-1,1,.45,1,1,1Z" fill="currentColor"/>
  <path d="M15,20.7c.59,0,1.08-.48,1.08-1.08s-.48-1.08-1.08-1.08-1.08.48-1.08,1.08.48,1.08,1.08,1.08Z" fill="currentColor"/>
  <path d="M10.34,13.57c.55,0,1-.45,1-1s-.45-1-1-1-1,.45-1,1,.45,1,1,1Z" fill="currentColor"/>
  <path d="M6.98,18.82c.83,0,1.5-.67,1.5-1.5s-.67-1.5-1.5-1.5-1.5.67-1.5,1.5.67,1.5,1.5,1.5Z" fill="currentColor"/>
  <path d="M2.02,15.32c.55,0,1-.45,1-1s-.45-1-1-1-1,.45-1,1,.45,1,1,1Z" fill="currentColor"/>
  <path d="M2.52,11.32c.83,0,1.5-.67,1.5-1.5s-.67-1.5-1.5-1.5-1.5.67-1.5,1.5.67,1.5,1.5,1.5Z" fill="currentColor"/>
  <path d="M6.98,9.82c.3,0,.54-.24.54-.54s-.24-.54-.54-.54-.54.24-.54.54.24.54.54.54Z" fill="currentColor"/>
  <path d="M11.69,9.21c.59,0,1.07-.48,1.07-1.07s-.48-1.07-1.07-1.07-1.07.48-1.07,1.07.48,1.07,1.07,1.07Z" fill="currentColor"/>
  <path d="M6.44,14c.24,0,.43-.19.43-.43s-.19-.43-.43-.43-.43.19-.43.43.19.43.43.43Z" fill="currentColor"/>
  <path d="M13.93,13.97c.46,0,.82-.37.82-.82s-.37-.82-.82-.82-.82.37-.82.82.37.82.82.82Z" fill="currentColor"/>
  <path d="M16.36,2.67c.19,0,.35-.16.35-.35s-.16-.35-.35-.35-.35.16-.35.35.16.35.35.35Z" fill="currentColor"/>
  <path d="M17.39,10.36c.19,0,.35-.16.35-.35s-.16-.35-.35-.35-.35.16-.35.35.16.35.35.35Z" fill="currentColor"/>
  <path d="M20.64,7.05c.19,0,.35-.16.35-.35s-.16-.35-.35-.35-.35.16-.35.35.16.35.35.35Z" fill="currentColor"/>
  <path d="M19.28,3.96c.19,0,.35-.16.35-.35s-.16-.35-.35-.35-.35.16-.35.35.16.35.35.35Z" fill="currentColor"/>
  <path d="M20.41,1.13c.1,0,.17-.08.17-.17s-.08-.17-.17-.17-.17.08-.17.17.08.17.17.17Z" fill="currentColor"/>
  <path d="M20.17,16.82c-.06.18.04.38.22.44s.38-.04.44-.22-.04-.38-.22-.44-.38.04-.44.22Z" fill="currentColor"/>
  <path d="M14.67,19.52c-.06.18.04.38.22.44s.38-.04.44-.22-.04-.38-.22-.44-.38.04-.44.22Z" fill="currentColor"/>
  <path d="M13.3,16.21c-.06.18.04.38.22.44s.38-.04.44-.22-.04-.38-.22-.44-.38.04-.44.22Z" fill="currentColor"/>
  <path d="M20.37,21.14c-.03.09.02.19.11.22s.19-.02.22-.11-.02-.19-.11-.22-.19.02-.22.11Z" fill="currentColor"/>
  <path d="M4.4,20.69c-.19-.02-.36.11-.39.3s.11.36.3.39.36-.11.39-.3-.11-.36-.3-.39Z" fill="currentColor"/>
  <path d="M.68,15.82c-.19-.02-.36.11-.39.3s.11.36.3.39.36-.11.39-.3-.11-.36-.3-.39Z" fill="currentColor"/>
  <path d="M1.66,19.06c-.19-.02-.36.11-.39.3s.11.36.3.39.36-.11.39-.3-.11-.36-.3-.39Z" fill="currentColor"/>
  <path d="M.2,21.73c-.1-.01-.18.06-.19.15s.06.18.15.19.18-.06.19-.15-.06-.18-.15-.19Z" fill="currentColor"/>
  <path d="M4.56,2.45c-.19-.02-.36.11-.39.3s.11.36.3.39.36-.11.39-.3-.11-.36-.3-.39Z" fill="currentColor"/>
  <path d="M1.83.81c-.19-.02-.36.11-.39.3s.11.36.3.39.36-.11.39-.3-.11-.36-.3-.39Z" fill="currentColor"/>
  <path d="M.36,3.48c-.1-.01-.18.06-.19.15s.06.18.15.19.18-.06.19-.15-.06-.18-.15-.19Z" fill="currentColor"/>
  <path d="M14.56,1.64c-.19-.02-.36.11-.39.3s.11.36.3.39.36-.11.39-.3-.11-.36-.3-.39Z" fill="currentColor"/>
  <path d="M11.83,0c-.19-.02-.36.11-.39.3s.11.36.3.39.36-.11.39-.3-.11-.36-.3-.39Z" fill="currentColor"/>
  <path d="M10.36,2.67c-.1-.01-.18.06-.19.15s.06.18.15.19.18-.06.19-.15-.06-.18-.15-.19Z" fill="currentColor"/>
  <path d="M12.56,20.58c-.19-.02-.36.11-.39.3s.11.36.3.39.36-.11.39-.3-.11-.36-.3-.39Z" fill="currentColor"/>
  <path d="M9.82,18.95c-.19-.02-.36.11-.39.3s.11.36.3.39.36-.11.39-.3-.11-.36-.3-.39Z" fill="currentColor"/>
  <path d="M8.36,21.61c-.1-.01-.18.06-.19.15s.06.18.15.19.18-.06.19-.15-.06-.18-.15-.19Z" fill="currentColor"/>
  <path d="M15.92,8.83c.19,0,.35-.16.35-.35s-.16-.35-.35-.35-.35.16-.35.35.16.35.35.35Z" fill="currentColor"/>
  <path d="M13.98,6.16c.19,0,.35-.16.35-.35s-.16-.35-.35-.35-.35.16-.35.35.16.35.35.35Z" fill="currentColor"/>
</svg>
