<?xml version="1.0" encoding="UTF-8"?>
<svg id="Layer_2" data-name="Layer 2" xmlns="http://www.w3.org/2000/svg" viewBox="0 0 245 244.99">
  <defs>
    <style>
      .cls-1 {
        fill: #009cde;
      }
    </style>
  </defs>
  <g id="Layer_1-2" data-name="Layer 1">
    <path class="cls-1" d="M122.51,0C54.72,0,0,54.71,0,122.5s54.72,122.5,122.51,122.5c45.46.1,87.21-25.07,108.34-65.33h-14.15v-.55l-.81-8.43h-23.14l-5.17,8.16h-20.15l-.54-8.16h-22.6l-5.44,8.43h-32.12c-9.8,0-19.06-5.99-20.42-15.24-.82-4.32-.82-8.75,0-13.07l-8.16,28.31h-17.7s-9.26-22.59-11.43-27.77c-1.36,5.72-7.35,27.77-7.35,27.77h-15.78l12.25-44.64h-5.44l3.81-13.06h19.88l13.88,32.67,5.44-19.33h-5.45l3.81-13.34h21.23l-6.26,21.51c3.81-10.89,15.8-21.51,30.5-21.51h23.68l-5.45,20.15h-15.51s1.36-4.35,1.91-6.53h-3.54c-8.44,0-16.6,12.51-16.6,21.22s7.08,10.35,8.71,10.35h17.42l20.96-31.85h-4.9l3.54-13.06h32.12l2.18,38.11,15.79-24.77h-4.9l3.81-13.34h31.85l3.54,51.72c7.07-15.51,10.88-32.67,10.88-50.9C245,54.72,190.29,0,122.5,0h0ZM166.05,138.28l-12.34,18.51h12.88l-.54-18.51ZM153.71,156.79h-.18v.27l.18-.27ZM215.05,138.28l-12.25,18.51h12.79l-.54-18.51Z"/>
  </g>
</svg>